<svg id="Layer_1" data-name="Layer 1" xmlns="http://www.w3.org/2000/svg" xmlns:xlink="http://www.w3.org/1999/xlink" viewBox="0 0 657.38899 827.476"><defs><style>.cls-1,.cls-13,.cls-14,.cls-4{fill:none;}.cls-2{clip-path:url(#clip-path);}.cls-3{fill:#fff;}.cls-13,.cls-4{stroke:#000;}.cls-13,.cls-14,.cls-4{stroke-miterlimit:10;}.cls-4{stroke-width:8px;}.cls-5{fill:red;}.cls-6{fill:#566;}.cls-7{fill:#788888;}.cls-8{fill:#ddd;}.cls-9{clip-path:url(#clip-path-3);}.cls-10{fill:#f0f0f0;}.cls-11{clip-path:url(#clip-path-4);}.cls-12{fill:#efefef;}.cls-13{stroke-width:50.074px;}.cls-14{stroke:#fff;stroke-width:31.679px;}.cls-15{fill:#000002;}</style><clipPath id="clip-path" transform="translate(32.9191 -6.651)"><rect class="cls-1" x="-40" y="-468" width="750" height="1334"/></clipPath><clipPath id="clip-path-3" transform="translate(32.9191 -6.651)"><rect class="cls-1" x="86.58097" y="414.87723" width="324.00007" height="222.87407" transform="translate(-313.52916 677.41482) rotate(-79.76437)"/></clipPath><clipPath id="clip-path-4" transform="translate(32.9191 -6.651)"><rect class="cls-1" x="86.40394" y="415.09871" width="323.99911" height="222.87506" transform="translate(-313.89412 677.42062) rotate(-79.76416)"/></clipPath></defs><title>scan button</title><g class="cls-2"><path class="cls-3" d="M373.752,714.5166a28.35108,28.35108,0,0,1-16.095-5.043,27.41025,27.41025,0,0,1-11.485-16.951,28.66665,28.66665,0,0,1-7.684,11.774,27.79893,27.79893,0,0,1-18.96,7.491,28.61392,28.61392,0,0,1-21.644-9.916,28.03,28.03,0,0,1-6.602-21.255l.451-4.51c.365-4.159.917-8.377,1.642-12.54.055-.314.116-.626.183-.938.705-3.243,1.501-7.485,2.366-12.607,1.032-6.104,2.53-13.093,4.452-20.778,1.832-7.336,3.892-15.09,6.119-23.04.011-.038.021-.076.032-.113,2.112-7.393,4.889-17.732,8.254-30.731,4.129-15.779,5.614-22.181,6.136-24.784.753-3.779,1.336-7.232,1.729-10.247q.033-.255.072-.507a112.68411,112.68411,0,0,1,2.954-13.813c.027-.096.056-.194.085-.291a38.18788,38.18788,0,0,0,1.172-4.625,22.89653,22.89653,0,0,1,.604-2.762q.207-.726.398-1.432a26.68428,26.68428,0,0,1,5.361-15.709c2.726-3.813,9.048-10.314,20.87-11.367a35.89377,35.89377,0,0,1,3.895-.218,27.81634,27.81634,0,0,1,19.863,7.873,26.49866,26.49866,0,0,1,7.681,22.355c.072,1.392.115,2.804.127,4.223.168,2.721.392,7.671.684,15.071.006.15.01.299.013.449.147,7.446.37,13.552.66,18.151.293,4.698.667,9.485,1.113,14.246.475,5.222.944,10.458,1.412,15.767q.02852.318.047.634c.295,4.881.676,10.125,1.131,15.589.5,6.005,1.118,13.116,1.837,21.14.893,8.33,1.565,14.167,2,17.352.421,3.09.845,5.999,1.262,8.66.662,3.366,1.179,6.502,1.542,9.331.154,1.047.489,2.896,1.213,5.921q.12452.5235.225,1.052c.77,4.05,1.061,5.256,1.111,5.457q.138.555.251,1.114.4575,2.304.921,4.601.204,1.0095.318,2.034l.148,1.339a28.28831,28.28831,0,0,1-23.187,32.164,28.49273,28.49273,0,0,1-4.677.389" transform="translate(32.9191 -6.651)"/><path class="cls-4" d="M373.752,714.5166a28.35108,28.35108,0,0,1-16.095-5.043,27.41025,27.41025,0,0,1-11.485-16.951,28.66665,28.66665,0,0,1-7.684,11.774,27.79893,27.79893,0,0,1-18.96,7.491,28.61392,28.61392,0,0,1-21.644-9.916,28.03,28.03,0,0,1-6.602-21.255l.451-4.51c.365-4.159.917-8.377,1.642-12.54.055-.314.116-.626.183-.938.705-3.243,1.501-7.485,2.366-12.607,1.032-6.104,2.53-13.093,4.452-20.778,1.832-7.336,3.892-15.09,6.119-23.04.011-.038.021-.076.032-.113,2.112-7.393,4.889-17.732,8.254-30.731,4.129-15.779,5.614-22.181,6.136-24.784.753-3.779,1.336-7.232,1.729-10.247q.033-.255.072-.507a112.68411,112.68411,0,0,1,2.954-13.813c.027-.096.056-.194.085-.291a38.18788,38.18788,0,0,0,1.172-4.625,22.89653,22.89653,0,0,1,.604-2.762q.207-.726.398-1.432a26.68428,26.68428,0,0,1,5.361-15.709c2.726-3.813,9.048-10.314,20.87-11.367a35.89377,35.89377,0,0,1,3.895-.218,27.81634,27.81634,0,0,1,19.863,7.873,26.49866,26.49866,0,0,1,7.681,22.355c.072,1.392.115,2.804.127,4.223.168,2.721.392,7.671.684,15.071.006.15.01.299.013.449.147,7.446.37,13.552.66,18.151.293,4.698.667,9.485,1.113,14.246.475,5.222.944,10.458,1.412,15.767q.02852.318.047.634c.295,4.881.676,10.125,1.131,15.589.5,6.005,1.118,13.116,1.837,21.14.893,8.33,1.565,14.167,2,17.352.421,3.09.845,5.999,1.262,8.66.662,3.366,1.179,6.502,1.542,9.331.154,1.047.489,2.896,1.213,5.921q.12452.5235.225,1.052c.77,4.05,1.061,5.256,1.111,5.457q.138.555.251,1.114.4575,2.304.921,4.601.204,1.0095.318,2.034l.148,1.339a28.28831,28.28831,0,0,1-23.187,32.164A28.49273,28.49273,0,0,1,373.752,714.5166Z" transform="translate(32.9191 -6.651)"/><path class="cls-3" d="M212.5688,717.0547a32.99517,32.99517,0,0,1-6.073-.556q-.672-.126-1.335-.292a54.56224,54.56224,0,0,1-8.747-2.99,41.68266,41.68266,0,0,1-12.272-7.831l-1.897-1.687a28.3734,28.3734,0,0,1-9.562-18.528,27.48517,27.48517,0,0,1,7.318-21.881,28.25018,28.25018,0,0,1,19.151-9.052c.579-.032,1.107-.046,1.631-.046a28.13848,28.13848,0,0,1,4.629.385c.235-1.728.308-2.732.33-3.21q-.372-3.09749-.74-5.889a30.58974,30.58974,0,0,0-.926-3.947,72.14883,72.14883,0,0,0-3.483-8.393,93.40559,93.40559,0,0,0-4.335-8.572,119.542,119.542,0,0,1-6.118-10.336c-1.566-2.97-3.135-6.026-4.646-9.048-1.677-3.356-3.347-7.143-4.963-11.258a102.6843,102.6843,0,0,1-5.463-19.71c-.027-.14-.053-.281-.077-.422a114.4254,114.4254,0,0,1-1.964-18.585c0-.342.008-.686.023-1.029a82.54771,82.54771,0,0,1,1.64-13.287c.035-.169.073-.337.112-.505.664-2.835,1.424-5.872,2.256-9.026a64.808,64.808,0,0,1,11.092-22.895,61.64674,61.64674,0,0,1,11.962-11.8c6.052-4.73,11.277-7.622,16.44-9.099q.57151-.1635,1.15-.297a54.73725,54.73725,0,0,1,12.413-1.29q.525,0,1.049.024a36.68,36.68,0,0,1,21.132,7.303c.189.145.375.292.559.443a40.33452,40.33452,0,0,1,9.113,10.383c.057.095.113.19.169.284a33.01976,33.01976,0,0,1,4.52,18.018v3.589a28.18117,28.18117,0,0,1-28.253,28.136,28.53,28.53,0,0,1-8.499-1.283c-.151.89-.268,1.875-.348,2.946a77.00615,77.00615,0,0,0,1.21,7.945c.008.042.015.085.023.127a52.80574,52.80574,0,0,0,2.228,9.137c.051.125.1.251.148.378.937,2.46,1.845,4.584,2.703,6.314,1.373,2.601,2.743,5.263,4.078,7.926,1.232,2.201,2.531,4.356,3.864,6.413q.168.258.329.521a163.009,163.009,0,0,1,7.704,14.77c.043.092.086.183.128.276a131.28841,131.28841,0,0,1,6.139,15.439,67.18937,67.18937,0,0,1,3.007,13.042q.4785,3.84449.96,8.161c.054.475.092.953.116,1.43a97.257,97.257,0,0,1-1.114,17.518c-.031.234-.067.469-.105.702a102.93729,102.93729,0,0,1-3.735,16.177,57.15412,57.15412,0,0,1-5.53,11.727,48.43148,48.43148,0,0,1-7.663,10.259,44.78536,44.78536,0,0,1-15.025,9.461c-.061.025-.121.049-.182.073a43.5224,43.5224,0,0,1-16.271,3.437" transform="translate(32.9191 -6.651)"/><path class="cls-4" d="M212.5688,717.0547a32.99517,32.99517,0,0,1-6.073-.556q-.672-.126-1.335-.292a54.56224,54.56224,0,0,1-8.747-2.99,41.68266,41.68266,0,0,1-12.272-7.831l-1.897-1.687a28.3734,28.3734,0,0,1-9.562-18.528,27.48517,27.48517,0,0,1,7.318-21.881,28.25018,28.25018,0,0,1,19.151-9.052c.579-.032,1.107-.046,1.631-.046a28.13848,28.13848,0,0,1,4.629.385c.235-1.728.308-2.732.33-3.21q-.372-3.09749-.74-5.889a30.58974,30.58974,0,0,0-.926-3.947,72.14883,72.14883,0,0,0-3.483-8.393,93.40559,93.40559,0,0,0-4.335-8.572,119.542,119.542,0,0,1-6.118-10.336c-1.566-2.97-3.135-6.026-4.646-9.048-1.677-3.356-3.347-7.143-4.963-11.258a102.6843,102.6843,0,0,1-5.463-19.71c-.027-.14-.053-.281-.077-.422a114.4254,114.4254,0,0,1-1.964-18.585c0-.342.008-.686.023-1.029a82.54771,82.54771,0,0,1,1.64-13.287c.035-.169.073-.337.112-.505.664-2.835,1.424-5.872,2.256-9.026a64.808,64.808,0,0,1,11.092-22.895,61.64674,61.64674,0,0,1,11.962-11.8c6.052-4.73,11.277-7.622,16.44-9.099q.57151-.1635,1.15-.297a54.73725,54.73725,0,0,1,12.413-1.29q.525,0,1.049.024a36.68,36.68,0,0,1,21.132,7.303c.189.145.375.292.559.443a40.33452,40.33452,0,0,1,9.113,10.383c.057.095.113.19.169.284a33.01976,33.01976,0,0,1,4.52,18.018v3.589a28.18117,28.18117,0,0,1-28.253,28.136,28.53,28.53,0,0,1-8.499-1.283c-.151.89-.268,1.875-.348,2.946a77.00615,77.00615,0,0,0,1.21,7.945c.008.042.015.085.023.127a52.80574,52.80574,0,0,0,2.228,9.137c.051.125.1.251.148.378.937,2.46,1.845,4.584,2.703,6.314,1.373,2.601,2.743,5.263,4.078,7.926,1.232,2.201,2.531,4.356,3.864,6.413q.168.258.329.521a163.009,163.009,0,0,1,7.704,14.77c.043.092.086.183.128.276a131.28841,131.28841,0,0,1,6.139,15.439,67.18937,67.18937,0,0,1,3.007,13.042q.4785,3.84449.96,8.161c.054.475.092.953.116,1.43a97.257,97.257,0,0,1-1.114,17.518c-.031.234-.067.469-.105.702a102.93729,102.93729,0,0,1-3.735,16.177,57.15412,57.15412,0,0,1-5.53,11.727,48.43148,48.43148,0,0,1-7.663,10.259,44.78536,44.78536,0,0,1-15.025,9.461c-.061.025-.121.049-.182.073A43.5224,43.5224,0,0,1,212.5688,717.0547Z" transform="translate(32.9191 -6.651)"/><path class="cls-3" d="M233.15091,526.02249v-4.903a4.06149,4.06149,0,0,0-1.167-1.167,9.65008,9.65008,0,0,0-2.335-.467,13.13388,13.13388,0,0,0-3.97.467q-1.39951.234-5.136,3.268a31.67446,31.67446,0,0,0-5.603,5.137,37.89069,37.89069,0,0,0-3.269,5.37,33.00426,33.00426,0,0,0-2.335,6.304,78.40279,78.40279,0,0,0-1.868,7.704,54.7,54.7,0,0,0-.934,7.705,76.25514,76.25514,0,0,0,1.635,12.608,74.47906,74.47906,0,0,0,3.502,13.541,94.069,94.069,0,0,0,3.735,8.639q2.10147,3.972,4.203,8.172,2.331,4.203,4.903,8.172,2.5665,4.203,6.537,12.608a108.532,108.532,0,0,1,5.137,12.841,45.4117,45.4117,0,0,1,2.101,8.872q.465,3.738.934,7.939a77.968,77.968,0,0,1-.934,13.308,84.08145,84.08145,0,0,1-2.802,12.491,33.79847,33.79847,0,0,1-3.501,7.355,26.99193,26.99193,0,0,1-4.203,5.837,23.039,23.039,0,0,1-7.471,4.435q-5.83952,2.33252-9.573,1.635a31.3532,31.3532,0,0,1-5.37-1.868,18.55763,18.55763,0,0,1-5.837-3.735l-2.102-1.869a5.30014,5.30014,0,0,1-1.867-3.619,4.6873,4.6873,0,0,1,1.284-3.851,5.20217,5.20217,0,0,1,3.619-1.751,5.1155,5.1155,0,0,1,3.735,1.283l2.102,1.868a15.26633,15.26633,0,0,0,3.035,2.102,22.86321,22.86321,0,0,0,3.502,1.167,8.94066,8.94066,0,0,0,3.502-1.167,12.48412,12.48412,0,0,0,3.97-2.102,22.79355,22.79355,0,0,0,2.801-3.735,46.79019,46.79019,0,0,0,2.568-5.604,50.29589,50.29589,0,0,0,2.102-10.507,52.80855,52.80855,0,0,0,.933-10.74q-.46948-3.966-.933-7.471a52.826,52.826,0,0,0-1.634-7.238,93.93845,93.93845,0,0,0-4.67-11.556,110.00309,110.00309,0,0,0-5.837-11.325,95.83336,95.83336,0,0,1-5.136-8.638q-2.33852-4.43253-4.436-8.639-2.1015-4.203-4.203-9.572a80.739,80.739,0,0,1-4.203-15.41,94.172,94.172,0,0,1-1.635-14.709,59.34963,59.34963,0,0,1,1.168-9.573q.93-3.96749,2.102-8.405a42.02844,42.02844,0,0,1,3.035-8.172,41.57371,41.57371,0,0,1,4.202-6.771,39.45231,39.45231,0,0,1,7.705-7.471q5.36848-4.203,8.639-5.137a32.55459,32.55459,0,0,1,7.237-.7,14.19448,14.19448,0,0,1,8.172,2.568,17.424,17.424,0,0,1,3.969,4.436,9.89745,9.89745,0,0,1,1.401,5.837v4.203a4.94712,4.94712,0,0,1-1.517,3.619,5.35515,5.35515,0,0,1-7.471,0,4.92888,4.92888,0,0,1-1.518-3.619" transform="translate(32.9191 -6.651)"/><path class="cls-4" d="M233.15091,526.02249v-4.903a4.06149,4.06149,0,0,0-1.167-1.167,9.65008,9.65008,0,0,0-2.335-.467,13.13388,13.13388,0,0,0-3.97.467q-1.39951.234-5.136,3.268a31.67446,31.67446,0,0,0-5.603,5.137,37.89069,37.89069,0,0,0-3.269,5.37,33.00426,33.00426,0,0,0-2.335,6.304,78.40279,78.40279,0,0,0-1.868,7.704,54.7,54.7,0,0,0-.934,7.705,76.25514,76.25514,0,0,0,1.635,12.608,74.47906,74.47906,0,0,0,3.502,13.541,94.069,94.069,0,0,0,3.735,8.639q2.10147,3.972,4.203,8.172,2.331,4.203,4.903,8.172,2.5665,4.203,6.537,12.608a108.532,108.532,0,0,1,5.137,12.841,45.4117,45.4117,0,0,1,2.101,8.872q.465,3.738.934,7.939a77.968,77.968,0,0,1-.934,13.308,84.08145,84.08145,0,0,1-2.802,12.491,33.79847,33.79847,0,0,1-3.501,7.355,26.99193,26.99193,0,0,1-4.203,5.837,23.039,23.039,0,0,1-7.471,4.435q-5.83952,2.33252-9.573,1.635a31.3532,31.3532,0,0,1-5.37-1.868,18.55763,18.55763,0,0,1-5.837-3.735l-2.102-1.869a5.30014,5.30014,0,0,1-1.867-3.619,4.6873,4.6873,0,0,1,1.284-3.851,5.20217,5.20217,0,0,1,3.619-1.751,5.1155,5.1155,0,0,1,3.735,1.283l2.102,1.868a15.26633,15.26633,0,0,0,3.035,2.102,22.86321,22.86321,0,0,0,3.502,1.167,8.94066,8.94066,0,0,0,3.502-1.167,12.48412,12.48412,0,0,0,3.97-2.102,22.79355,22.79355,0,0,0,2.801-3.735,46.79019,46.79019,0,0,0,2.568-5.604,50.29589,50.29589,0,0,0,2.102-10.507,52.80855,52.80855,0,0,0,.933-10.74q-.46948-3.966-.933-7.471a52.826,52.826,0,0,0-1.634-7.238,93.93845,93.93845,0,0,0-4.67-11.556,110.00309,110.00309,0,0,0-5.837-11.325,95.83336,95.83336,0,0,1-5.136-8.638q-2.33852-4.43253-4.436-8.639-2.1015-4.203-4.203-9.572a80.739,80.739,0,0,1-4.203-15.41,94.172,94.172,0,0,1-1.635-14.709,59.34963,59.34963,0,0,1,1.168-9.573q.93-3.96749,2.102-8.405a42.02844,42.02844,0,0,1,3.035-8.172,41.57371,41.57371,0,0,1,4.202-6.771,39.45231,39.45231,0,0,1,7.705-7.471q5.36848-4.203,8.639-5.137a32.55459,32.55459,0,0,1,7.237-.7,14.19448,14.19448,0,0,1,8.172,2.568,17.424,17.424,0,0,1,3.969,4.436,9.89745,9.89745,0,0,1,1.401,5.837v4.203a4.94712,4.94712,0,0,1-1.517,3.619,5.35515,5.35515,0,0,1-7.471,0A4.92888,4.92888,0,0,1,233.15091,526.02249Z" transform="translate(32.9191 -6.651)"/><path class="cls-3" d="M285.916,717.3604a46.79565,46.79565,0,0,1-13.426-2.233,44.9815,44.9815,0,0,1-21.109-12.978,43.3278,43.3278,0,0,1-6.909-9.394,68.082,68.082,0,0,1-4.09-9.177,114.49522,114.49522,0,0,1-4.037-15.669,135.01709,135.01709,0,0,1-3.002-17.875c-.341-4.06-.599-8.477-.765-13.105-.164-4.487-.248-9.288-.248-14.247,0-5.193.174-10.425.519-15.55.324-4.718.884-11.689,1.668-20.752.818-9.503,1.548-16.533,2.232-21.48.649-4.562,1.306-8.831,1.965-12.779.04-.241.085-.483.133-.723.921-4.608,2.049-9.115,3.352-13.396.088-.288.18-.573.279-.856,1.284-3.694,2.511-7.129,3.646-10.207q.1815-.489.383-.97a70.59755,70.59755,0,0,1,8.455-14.439c4.364-6.043,8.014-9.978,11.823-12.748q.585-.42449,1.194-.813a49.63234,49.63234,0,0,1,9.602-4.766q.55651-.20251,1.121-.376a40.06941,40.06941,0,0,1,11.763-1.758c.702,0,1.413.019,2.122.055a34.47244,34.47244,0,0,1,20.405,7.078q.495.37953.97.787l1.179,1.011a27.39164,27.39164,0,0,1,10.223,18.81,28.21,28.21,0,0,1-23.836,30.982,28.998,28.998,0,0,1-3.703.34c-.576,1.451-1.165,3.079-1.759,4.864a49.88545,49.88545,0,0,0-1.747,6.804c-.555,3.195-1.087,6.783-1.58,10.666-.506,3.96-1.141,10.292-1.889,18.834-.761,8.5-1.297,15.079-1.597,19.597-.278,3.999-.416,7.94-.416,11.785,0,4.247.073,8.313.217,12.081.137,3.703.345,7.172.621,10.335a105.30236,105.30236,0,0,0,1.923,10.95c.03.145.061.287.09.426a27.89751,27.89751,0,0,1,4.233-.322,29.35439,29.35439,0,0,1,2.987.154,28.45685,28.45685,0,0,1,18.694,9.754,27.69081,27.69081,0,0,1,6.587,21.23,28.36344,28.36344,0,0,1-8.856,17.651l-1.016,1.016a23.09288,23.09288,0,0,1-2.153,1.898,59.48422,59.48422,0,0,1-8.319,5.345,22.99107,22.99107,0,0,1-2.855,1.298,42.962,42.962,0,0,1-15.074,2.862" transform="translate(32.9191 -6.651)"/><path class="cls-4" d="M285.916,717.3604a46.79565,46.79565,0,0,1-13.426-2.233,44.9815,44.9815,0,0,1-21.109-12.978,43.3278,43.3278,0,0,1-6.909-9.394,68.082,68.082,0,0,1-4.09-9.177,114.49522,114.49522,0,0,1-4.037-15.669,135.01709,135.01709,0,0,1-3.002-17.875c-.341-4.06-.599-8.477-.765-13.105-.164-4.487-.248-9.288-.248-14.247,0-5.193.174-10.425.519-15.55.324-4.718.884-11.689,1.668-20.752.818-9.503,1.548-16.533,2.232-21.48.649-4.562,1.306-8.831,1.965-12.779.04-.241.085-.483.133-.723.921-4.608,2.049-9.115,3.352-13.396.088-.288.18-.573.279-.856,1.284-3.694,2.511-7.129,3.646-10.207q.1815-.489.383-.97a70.59755,70.59755,0,0,1,8.455-14.439c4.364-6.043,8.014-9.978,11.823-12.748q.585-.42449,1.194-.813a49.63234,49.63234,0,0,1,9.602-4.766q.55651-.20251,1.121-.376a40.06941,40.06941,0,0,1,11.763-1.758c.702,0,1.413.019,2.122.055a34.47244,34.47244,0,0,1,20.405,7.078q.495.37953.97.787l1.179,1.011a27.39164,27.39164,0,0,1,10.223,18.81,28.21,28.21,0,0,1-23.836,30.982,28.998,28.998,0,0,1-3.703.34c-.576,1.451-1.165,3.079-1.759,4.864a49.88545,49.88545,0,0,0-1.747,6.804c-.555,3.195-1.087,6.783-1.58,10.666-.506,3.96-1.141,10.292-1.889,18.834-.761,8.5-1.297,15.079-1.597,19.597-.278,3.999-.416,7.94-.416,11.785,0,4.247.073,8.313.217,12.081.137,3.703.345,7.172.621,10.335a105.30236,105.30236,0,0,0,1.923,10.95c.03.145.061.287.09.426a27.89751,27.89751,0,0,1,4.233-.322,29.35439,29.35439,0,0,1,2.987.154,28.45685,28.45685,0,0,1,18.694,9.754,27.69081,27.69081,0,0,1,6.587,21.23,28.36344,28.36344,0,0,1-8.856,17.651l-1.016,1.016a23.09288,23.09288,0,0,1-2.153,1.898,59.48422,59.48422,0,0,1-8.319,5.345,22.99107,22.99107,0,0,1-2.855,1.298A42.962,42.962,0,0,1,285.916,717.3604Z" transform="translate(32.9191 -6.651)"/><path class="cls-3" d="M294.0874,526.02249l-1.634-1.401h-.934a4.73741,4.73741,0,0,0-2.568.233,11.99271,11.99271,0,0,0-2.802,1.401q-1.1715.70051-3.969,4.904a37.04149,37.04149,0,0,0-4.67,7.937q-1.635,3.738-3.269,8.639a72.66989,72.66989,0,0,0-2.568,10.04q-.936,5.373-1.751,11.791-.82049,6.423-1.984,19.728-1.17152,13.0785-1.635,20.08-.471,6.774-.466,13.308,0,6.77549.233,12.958.22953,6.189.7,11.557a127.7277,127.7277,0,0,0,2.335,13.659,108.28624,108.28624,0,0,0,2.802,11.323,41.0776,41.0776,0,0,0,1.868,4.437,12.96077,12.96077,0,0,0,2.101,2.802,10.0724,10.0724,0,0,0,2.335,2.101,11.59873,11.59873,0,0,0,3.735,1.4,17.10556,17.10556,0,0,0,4.436.934,5.36673,5.36673,0,0,0,2.101-.7,11.606,11.606,0,0,0,2.802-1.401l1.401-1.401a4.90005,4.90005,0,0,1,3.853-1.167,5.3368,5.3368,0,0,1,3.619,1.867,4.73546,4.73546,0,0,1,1.167,3.737,5.24051,5.24051,0,0,1-1.868,3.502l-1.401,1.4a37.20859,37.20859,0,0,1-5.136,3.269,20.01981,20.01981,0,0,1-7.004,1.401,25.78076,25.78076,0,0,1-6.888-1.284,22.76938,22.76938,0,0,1-6.888-3.153,21.8762,21.8762,0,0,1-3.969-3.502,20.30879,20.30879,0,0,1-3.502-4.669,44.83146,44.83146,0,0,1-2.685-6.071,101.28482,101.28482,0,0,1-3.152-12.607,115.33735,115.33735,0,0,1-2.568-14.943q-.471-5.604-.701-12.024-.23549-6.41851-.233-13.425,0-7.005.466-14.009.4665-6.768,1.635-20.312,1.16546-13.539,2.101-20.313.93-6.534,1.868-12.141,1.16551-5.83352,2.802-11.207,1.866-5.367,3.502-9.806a48.87714,48.87714,0,0,1,5.837-9.807q4.203-5.832,6.771-7.704a26.51334,26.51334,0,0,1,5.136-2.568,17.19009,17.19009,0,0,1,6.305-.7,11.53926,11.53926,0,0,1,7.237,2.334l1.635,1.401a4.5371,4.5371,0,0,1,1.867,3.386,5.139,5.139,0,0,1-1.05,3.851,5.33389,5.33389,0,0,1-3.502,1.986,4.55386,4.55386,0,0,1-3.853-1.051" transform="translate(32.9191 -6.651)"/><path class="cls-4" d="M294.0874,526.02249l-1.634-1.401h-.934a4.73741,4.73741,0,0,0-2.568.233,11.99271,11.99271,0,0,0-2.802,1.401q-1.1715.70051-3.969,4.904a37.04149,37.04149,0,0,0-4.67,7.937q-1.635,3.738-3.269,8.639a72.66989,72.66989,0,0,0-2.568,10.04q-.936,5.373-1.751,11.791-.82049,6.423-1.984,19.728-1.17152,13.0785-1.635,20.08-.471,6.774-.466,13.308,0,6.77549.233,12.958.22953,6.189.7,11.557a127.7277,127.7277,0,0,0,2.335,13.659,108.28624,108.28624,0,0,0,2.802,11.323,41.0776,41.0776,0,0,0,1.868,4.437,12.96077,12.96077,0,0,0,2.101,2.802,10.0724,10.0724,0,0,0,2.335,2.101,11.59873,11.59873,0,0,0,3.735,1.4,17.10556,17.10556,0,0,0,4.436.934,5.36673,5.36673,0,0,0,2.101-.7,11.606,11.606,0,0,0,2.802-1.401l1.401-1.401a4.90005,4.90005,0,0,1,3.853-1.167,5.3368,5.3368,0,0,1,3.619,1.867,4.73546,4.73546,0,0,1,1.167,3.737,5.24051,5.24051,0,0,1-1.868,3.502l-1.401,1.4a37.20859,37.20859,0,0,1-5.136,3.269,20.01981,20.01981,0,0,1-7.004,1.401,25.78076,25.78076,0,0,1-6.888-1.284,22.76938,22.76938,0,0,1-6.888-3.153,21.8762,21.8762,0,0,1-3.969-3.502,20.30879,20.30879,0,0,1-3.502-4.669,44.83146,44.83146,0,0,1-2.685-6.071,101.28482,101.28482,0,0,1-3.152-12.607,115.33735,115.33735,0,0,1-2.568-14.943q-.471-5.604-.701-12.024-.23549-6.41851-.233-13.425,0-7.005.466-14.009.4665-6.768,1.635-20.312,1.16546-13.539,2.101-20.313.93-6.534,1.868-12.141,1.16551-5.83352,2.802-11.207,1.866-5.367,3.502-9.806a48.87714,48.87714,0,0,1,5.837-9.807q4.203-5.832,6.771-7.704a26.51334,26.51334,0,0,1,5.136-2.568,17.19009,17.19009,0,0,1,6.305-.7,11.53926,11.53926,0,0,1,7.237,2.334l1.635,1.401a4.5371,4.5371,0,0,1,1.867,3.386,5.139,5.139,0,0,1-1.05,3.851,5.33389,5.33389,0,0,1-3.502,1.986A4.55386,4.55386,0,0,1,294.0874,526.02249Z" transform="translate(32.9191 -6.651)"/><path class="cls-3" d="M314.16638,682.9201l.467-4.67q.465-5.367,1.401-10.739,1.16552-5.37,2.568-13.66,1.401-8.28448,4.086-19.028,2.682-10.73548,5.954-22.414,3.267-11.436,8.404-31.286,5.133-19.611,6.422-26.032,1.281-6.42,1.985-11.791a89.21856,89.21856,0,0,1,2.334-10.974,60.1273,60.1273,0,0,0,1.869-7.705q.92848-3.267,1.633-6.304a4.16349,4.16349,0,0,1-.35-1.284,4.00924,4.00924,0,0,1,1.051-2.451q1.16552-1.6305,4.435-1.868,3.73353-.465,5.254,1.05a3.39663,3.39663,0,0,1,1.051,3.386l-.234,1.867q.231,2.80349.234,5.837.228,3.273.699,15.177.2325,11.67746.701,19.145.46652,7.4745,1.168,14.943.70047,7.70548,1.401,15.643.465,7.704,1.168,16.11.70047,8.40447,1.867,21.479,1.401,13.08,2.102,18.212.699,5.139,1.4,9.573.9315,4.6725,1.4,8.405.46652,3.273,1.635,8.172.93151,4.902,1.4,6.77.4665,2.33848.936,4.67l.232,2.102a4.88653,4.88653,0,0,1-.816,3.968,4.987,4.987,0,0,1-3.387,2.219,5.26758,5.26758,0,0,1-3.968-.934,4.5777,4.5777,0,0,1-2.102-3.386l-.467-2.334a30.58526,30.58526,0,0,0-.699-3.97q-.4725-2.1-1.402-7.004-1.17-5.133-1.868-8.872-.471-3.50252-1.168-7.938-.93452-4.66949-1.632-10.04-.70349-5.367-2.102-18.678-.237-2.5665-.467-4.903h-1.402q-2.1.23553-6.77.233h-5.603q-1.872.23553-4.438.467a26.025,26.025,0,0,0-3.968.233h-.233q-1.872,6.77549-3.503,13.075-2.571,10.506-3.969,18.445-1.401,8.1765-2.334,13.542a56.40856,56.40856,0,0,0-1.401,9.573l-.467,4.902a5.69434,5.69434,0,0,1-1.868,3.62,4.71549,4.71549,0,0,1-3.853,1.284,5.3355,5.3355,0,0,1-3.618-1.868,5.05725,5.05725,0,0,1-1.168-3.969m24.982-69.343h.701q2.56649-.2295,3.969-.233,2.1-.231,6.771-.235a57.86985,57.86985,0,0,0,6.303-.233h.934q-.23548-3.267-.467-6.07-.70051-8.406-1.166-16.344-.70051-7.704-1.168-15.409-.70051-7.70553-1.168-15.176a11.83679,11.83679,0,0,1-.232-2.335q-1.401,7.005-6.538,26.149-4.6755,18.68248-7.939,29.886" transform="translate(32.9191 -6.651)"/><path class="cls-4" d="M314.16638,682.9201l.467-4.67q.465-5.367,1.401-10.739,1.16552-5.37,2.568-13.66,1.401-8.28448,4.086-19.028,2.682-10.73548,5.954-22.414,3.267-11.436,8.404-31.286,5.133-19.611,6.422-26.032,1.281-6.42,1.985-11.791a89.21856,89.21856,0,0,1,2.334-10.974,60.1273,60.1273,0,0,0,1.869-7.705q.92848-3.267,1.633-6.304a4.16349,4.16349,0,0,1-.35-1.284,4.00924,4.00924,0,0,1,1.051-2.451q1.16552-1.6305,4.435-1.868,3.73353-.465,5.254,1.05a3.39663,3.39663,0,0,1,1.051,3.386l-.234,1.867q.231,2.80349.234,5.837.228,3.273.699,15.177.2325,11.67746.701,19.145.46652,7.4745,1.168,14.943.70047,7.70548,1.401,15.643.465,7.704,1.168,16.11.70047,8.40447,1.867,21.479,1.401,13.08,2.102,18.212.699,5.139,1.4,9.573.9315,4.6725,1.4,8.405.46652,3.273,1.635,8.172.93151,4.902,1.4,6.77.4665,2.33848.936,4.67l.232,2.102a4.88653,4.88653,0,0,1-.816,3.968,4.987,4.987,0,0,1-3.387,2.219,5.26758,5.26758,0,0,1-3.968-.934,4.5777,4.5777,0,0,1-2.102-3.386l-.467-2.334a30.58526,30.58526,0,0,0-.699-3.97q-.4725-2.1-1.402-7.004-1.17-5.133-1.868-8.872-.471-3.50252-1.168-7.938-.93452-4.66949-1.632-10.04-.70349-5.367-2.102-18.678-.237-2.5665-.467-4.903h-1.402q-2.1.23553-6.77.233h-5.603q-1.872.23553-4.438.467a26.025,26.025,0,0,0-3.968.233h-.233q-1.872,6.77549-3.503,13.075-2.571,10.506-3.969,18.445-1.401,8.1765-2.334,13.542a56.40856,56.40856,0,0,0-1.401,9.573l-.467,4.902a5.69434,5.69434,0,0,1-1.868,3.62,4.71549,4.71549,0,0,1-3.853,1.284,5.3355,5.3355,0,0,1-3.618-1.868A5.05725,5.05725,0,0,1,314.16638,682.9201Zm24.982-69.343h.701q2.56649-.2295,3.969-.233,2.1-.231,6.771-.235a57.86985,57.86985,0,0,0,6.303-.233h.934q-.23548-3.267-.467-6.07-.70051-8.406-1.166-16.344-.70051-7.704-1.168-15.409-.70051-7.70553-1.168-15.176a11.83679,11.83679,0,0,1-.232-2.335q-1.401,7.005-6.538,26.149Q342.4119,602.37362,339.14841,613.5771Z" transform="translate(32.9191 -6.651)"/><path class="cls-3" d="M444.91409,716.4268a29.04611,29.04611,0,0,1-15.362-4.539,27.733,27.733,0,0,1-8.41-7.123q-.669.71249-1.391,1.389a28.49793,28.49793,0,0,1-19.431,7.705,28.17931,28.17931,0,0,1-28.136-28.137v-2.102c0-.086-.007-.926-.184-3.63q-.21753-3.42752-.426-5.761-.09152-1.023-.092-2.049c0-.841-.047-1.801-.141-2.853q-.093-1.0215-.092-2.049c0-1.289-.06-2.79-.177-4.459q-.2655-3.94648-.496-8.655-.24-4.99349-.709-16.667c-.313-7.702-.476-14.124-.485-19.086l-.442-13.022c-.327-4.991-.493-10.011-.493-14.927,0-3.836-.14-7.973-.419-12.298q-.024-.37651-.036-.756c-.162-5.159-.283-12.207-.36-20.947-.085-9.09-.04-15.422.138-19.346.154-3.568.319-6.785.489-9.497q.0435-.705.132-1.409a30.23524,30.23524,0,0,0,.29-3.455q0-.75449.049-1.507a48.18129,48.18129,0,0,1,2.303-12.085l.477-1.427a27.72434,27.72434,0,0,1,13.739-16.87,28.26427,28.26427,0,0,1,13.175-3.299,27.93758,27.93758,0,0,1,3.973.284c.163-.003.328-.004.491-.004a27.7061,27.7061,0,0,1,20.439,8.947q.651.70349,1.25,1.439a28.253,28.253,0,0,1,47.307,20.786v8.172c0,2.01.07,4.562.209,7.583.016.351.024.704.024,1.055v7.406c.155,2.44.234,4.815.234,7.07,0,1.268.039,4.082.223,10.29.14,4.82.281,8.649.422,11.405.339,3.788.648,9.635.973,18.307.325,8.813.483,15.43.483,20.236,0,4.084.072,8.026.216,11.714.012.298.017.596.017.894,0,4.094-.039,10.385-.118,19.235-.083,8.801-.285,15.247-.617,19.686q-.231,5.94-.461,10.541c-.015.322-.038.643-.067.963-.246,2.692-.371,5.049-.371,7.01q0,.6105-.033,1.221c-.162,3.045-.323,5.492-.494,7.465a28.24833,28.24833,0,0,1-.496,3.604c-.012.065-.025.129-.039.194a33.39218,33.39218,0,0,1-1.97,6.117,29.83946,29.83946,0,0,1-6.332,9.629c-.038.039-.077.078-.116.116a26.22831,26.22831,0,0,1-18.657,7.496" transform="translate(32.9191 -6.651)"/><path class="cls-4" d="M444.91409,716.4268a29.04611,29.04611,0,0,1-15.362-4.539,27.733,27.733,0,0,1-8.41-7.123q-.669.71249-1.391,1.389a28.49793,28.49793,0,0,1-19.431,7.705,28.17931,28.17931,0,0,1-28.136-28.137v-2.102c0-.086-.007-.926-.184-3.63q-.21753-3.42752-.426-5.761-.09152-1.023-.092-2.049c0-.841-.047-1.801-.141-2.853q-.093-1.0215-.092-2.049c0-1.289-.06-2.79-.177-4.459q-.2655-3.94648-.496-8.655-.24-4.99349-.709-16.667c-.313-7.702-.476-14.124-.485-19.086l-.442-13.022c-.327-4.991-.493-10.011-.493-14.927,0-3.836-.14-7.973-.419-12.298q-.024-.37651-.036-.756c-.162-5.159-.283-12.207-.36-20.947-.085-9.09-.04-15.422.138-19.346.154-3.568.319-6.785.489-9.497q.0435-.705.132-1.409a30.23524,30.23524,0,0,0,.29-3.455q0-.75449.049-1.507a48.18129,48.18129,0,0,1,2.303-12.085l.477-1.427a27.72434,27.72434,0,0,1,13.739-16.87,28.26427,28.26427,0,0,1,13.175-3.299,27.93758,27.93758,0,0,1,3.973.284c.163-.003.328-.004.491-.004a27.7061,27.7061,0,0,1,20.439,8.947q.651.70349,1.25,1.439a28.253,28.253,0,0,1,47.307,20.786v8.172c0,2.01.07,4.562.209,7.583.016.351.024.704.024,1.055v7.406c.155,2.44.234,4.815.234,7.07,0,1.268.039,4.082.223,10.29.14,4.82.281,8.649.422,11.405.339,3.788.648,9.635.973,18.307.325,8.813.483,15.43.483,20.236,0,4.084.072,8.026.216,11.714.012.298.017.596.017.894,0,4.094-.039,10.385-.118,19.235-.083,8.801-.285,15.247-.617,19.686q-.231,5.94-.461,10.541c-.015.322-.038.643-.067.963-.246,2.692-.371,5.049-.371,7.01q0,.6105-.033,1.221c-.162,3.045-.323,5.492-.494,7.465a28.24833,28.24833,0,0,1-.496,3.604c-.012.065-.025.129-.039.194a33.39218,33.39218,0,0,1-1.97,6.117,29.83946,29.83946,0,0,1-6.332,9.629c-.038.039-.077.078-.116.116A26.22831,26.22831,0,0,1,444.91409,716.4268Z" transform="translate(32.9191 -6.651)"/><path class="cls-3" d="M402.8877,510.8457a4.78569,4.78569,0,0,1,3.619,1.635,5.34177,5.34177,0,0,1,1.518,3.735v1.401a27.5617,27.5617,0,0,0,.467,3.969q.70051,3.273,1.401,7.005.70052,3.7365,1.751,8.639,1.05,4.902,3.852,17.044,2.56655,12.141,4.203,18.911,1.63052,6.774,3.502,13.308,1.866,6.54,3.736,13.309,1.866,6.7755,4.435,19.145,2.3325,12.1425,3.97,18.212,1.63051,6.072,2.802,11.207.93,3.972,2.568,9.338.231-5.6025.467-15.642v-18.679q-.23552-6.303-.233-12.841,0-6.534-.467-18.912-.47246-12.372-.701-17.044-.471-4.902-.701-13.075-.234-8.169-.233-11.207,0-3.03-.233-6.07v-8.172q-.237-5.133-.234-8.872v-8.172a4.92818,4.92818,0,0,1,1.518-3.618,5.35636,5.35636,0,0,1,7.472,0,4.95043,4.95043,0,0,1,1.517,3.618v8.172q0,3.50248.233,8.638v8.172q.231,3.273.234,6.304,0,3.03748.233,10.974.231,7.941.467,12.375.4665,4.902.934,17.51.465,12.609.467,19.379,0,6.54.234,12.608,0,6.303-.117,19.028-.12,12.7275-.584,18.562-.23552,6.0735-.467,10.74-.471,5.139-.467,9.105-.23551,4.4385-.467,7.005a5.07092,5.07092,0,0,1-.117.817,13.15443,13.15443,0,0,1-.7,1.985,6.90086,6.90086,0,0,1-1.4,2.218,3.34565,3.34565,0,0,1-2.453.817,6.98182,6.98182,0,0,1-3.735-1.401,5.28219,5.28219,0,0,1-1.984-1.518,3.90537,3.90537,0,0,1-.702-1.4,9.51644,9.51644,0,0,1-.116-1.751q-.46949-2.103-1.635-6.305-1.17-4.203-2.1-6.77-.702-2.80352-3.035-10.39-2.33853-7.58551-3.503-12.958-1.401-5.133-3.035-11.207-1.63651-6.30448-3.969-18.679-2.5725-12.1365-4.437-18.444-1.635-6.7695-3.502-13.309-1.872-6.768-3.619-13.658-1.7505-6.885-4.435-19.028-2.688-12.138-3.853-17.279v-.466q-.23552,5.13753-.233,17.277.22949,12.6075.467,19.145.46353,8.406.466,15.176,0,6.54153.467,13.309.231,6.774.467,14.009,0,7.005.468,18.445.46348,11.442.7,16.226.22948,4.788.467,8.289.22953,3.2715.233,5.836c.153,1.715.234,3.426.234,5.137q.22947,2.57248.466,6.07.231,3.7395.234,5.837v2.102a4.78777,4.78777,0,0,1-1.634,3.619,5.34174,5.34174,0,0,1-3.735,1.518,5.1817,5.1817,0,0,1-5.137-5.137v-2.102q0-1.63052-.233-5.136-.237-3.732-.468-6.304,0-2.331-.234-4.902,0-2.8035-.233-6.072-.234-3.501-.467-8.172-.23549-4.902-.7-16.459-.471-11.559-.467-18.562-.23552-7.00351-.467-13.775-.471-7.00346-.467-13.776,0-6.53247-.467-13.774-.234-7.47147-.35-20.43-.1215-12.95851.116-18.095.231-5.36852.467-9.105a52.23063,52.23063,0,0,0,.467-6.304,25.04832,25.04832,0,0,1,1.168-6.304l.7-2.101a4.5505,4.5505,0,0,1,2.451-3.152,5.00952,5.00952,0,0,1,4.086-.351c.311.157.62.314.935.468a4.13725,4.13725,0,0,1,1.867-.468" transform="translate(32.9191 -6.651)"/><path class="cls-4" d="M402.8877,510.8457a4.78569,4.78569,0,0,1,3.619,1.635,5.34177,5.34177,0,0,1,1.518,3.735v1.401a27.5617,27.5617,0,0,0,.467,3.969q.70051,3.273,1.401,7.005.70052,3.7365,1.751,8.639,1.05,4.902,3.852,17.044,2.56655,12.141,4.203,18.911,1.63052,6.774,3.502,13.308,1.866,6.54,3.736,13.309,1.866,6.7755,4.435,19.145,2.3325,12.1425,3.97,18.212,1.63051,6.072,2.802,11.207.93,3.972,2.568,9.338.231-5.6025.467-15.642v-18.679q-.23552-6.303-.233-12.841,0-6.534-.467-18.912-.47246-12.372-.701-17.044-.471-4.902-.701-13.075-.234-8.169-.233-11.207,0-3.03-.233-6.07v-8.172q-.237-5.133-.234-8.872v-8.172a4.92818,4.92818,0,0,1,1.518-3.618,5.35636,5.35636,0,0,1,7.472,0,4.95043,4.95043,0,0,1,1.517,3.618v8.172q0,3.50248.233,8.638v8.172q.231,3.273.234,6.304,0,3.03748.233,10.974.231,7.941.467,12.375.4665,4.902.934,17.51.465,12.609.467,19.379,0,6.54.234,12.608,0,6.303-.117,19.028-.12,12.7275-.584,18.562-.23552,6.0735-.467,10.74-.471,5.139-.467,9.105-.23551,4.4385-.467,7.005a5.07092,5.07092,0,0,1-.117.817,13.15443,13.15443,0,0,1-.7,1.985,6.90086,6.90086,0,0,1-1.4,2.218,3.34565,3.34565,0,0,1-2.453.817,6.98182,6.98182,0,0,1-3.735-1.401,5.28219,5.28219,0,0,1-1.984-1.518,3.90537,3.90537,0,0,1-.702-1.4,9.51644,9.51644,0,0,1-.116-1.751q-.46949-2.103-1.635-6.305-1.17-4.203-2.1-6.77-.702-2.80352-3.035-10.39-2.33853-7.58551-3.503-12.958-1.401-5.133-3.035-11.207-1.63651-6.30448-3.969-18.679-2.5725-12.1365-4.437-18.444-1.635-6.7695-3.502-13.309-1.872-6.768-3.619-13.658-1.7505-6.885-4.435-19.028-2.688-12.138-3.853-17.279v-.466q-.23552,5.13753-.233,17.277.22949,12.6075.467,19.145.46353,8.406.466,15.176,0,6.54153.467,13.309.231,6.774.467,14.009,0,7.005.468,18.445.46348,11.442.7,16.226.22948,4.788.467,8.289.22953,3.2715.233,5.836c.153,1.715.234,3.426.234,5.137q.22947,2.57248.466,6.07.231,3.7395.234,5.837v2.102a4.78777,4.78777,0,0,1-1.634,3.619,5.34174,5.34174,0,0,1-3.735,1.518,5.1817,5.1817,0,0,1-5.137-5.137v-2.102q0-1.63052-.233-5.136-.237-3.732-.468-6.304,0-2.331-.234-4.902,0-2.8035-.233-6.072-.234-3.501-.467-8.172-.23549-4.902-.7-16.459-.471-11.559-.467-18.562-.23552-7.00351-.467-13.775-.471-7.00346-.467-13.776,0-6.53247-.467-13.774-.234-7.47147-.35-20.43-.1215-12.95851.116-18.095.231-5.36852.467-9.105a52.23063,52.23063,0,0,0,.467-6.304,25.04832,25.04832,0,0,1,1.168-6.304l.7-2.101a4.5505,4.5505,0,0,1,2.451-3.152,5.00952,5.00952,0,0,1,4.086-.351c.311.157.62.314.935.468A4.13725,4.13725,0,0,1,402.8877,510.8457Z" transform="translate(32.9191 -6.651)"/><path class="cls-3" d="M533.18359,830.127a22.992,22.992,0,0,1-19.217-10.338c-34.173-51.803-74.594-98.407-118.245-136.532l-13.8,76.42a73.48688,73.48688,0,0,1-85.444,59.306l-195.128-35.235a73.54481,73.54481,0,0,1-59.306-85.443l19.412-107.5q-8.547,3.774-16.676,8.349a23.0003,23.0003,0,0,1-22.563-40.087,197.51887,197.51887,0,0,0,52.829-43.521l30.243-167.485a73.0905,73.0905,0,0,1,35.202-50.425c-1.559-81.93-23.384-169.457-63.479-254.139a22.9996,22.9996,0,0,1,39.986-22.508c49.536,75.092,110.86,137.891,177.344,181.609,64.312,42.289,130.086,64.641,190.211,64.64,37.243-.001,71.438-8.619,101.631-25.614a22.99987,22.99987,0,1,1,22.563,40.086c-63.79,35.906-104.832,107.427-115.566,201.387-11.028,96.542,10.555,208.122,60.77405,314.184a23.00546,23.00546,0,0,1-20.771,32.846" transform="translate(32.9191 -6.651)"/><path class="cls-4" d="M533.18359,830.127a22.992,22.992,0,0,1-19.217-10.338c-34.173-51.803-74.594-98.407-118.245-136.532l-13.8,76.42a73.48688,73.48688,0,0,1-85.444,59.306l-195.128-35.235a73.54481,73.54481,0,0,1-59.306-85.443l19.412-107.5q-8.547,3.774-16.676,8.349a23.0003,23.0003,0,0,1-22.563-40.087,197.51887,197.51887,0,0,0,52.829-43.521l30.243-167.485a73.0905,73.0905,0,0,1,35.202-50.425c-1.559-81.93-23.384-169.457-63.479-254.139a22.9996,22.9996,0,0,1,39.986-22.508c49.536,75.092,110.86,137.891,177.344,181.609,64.312,42.289,130.086,64.641,190.211,64.64,37.243-.001,71.438-8.619,101.631-25.614a22.99987,22.99987,0,1,1,22.563,40.086c-63.79,35.906-104.832,107.427-115.566,201.387-11.028,96.542,10.555,208.122,60.77405,314.184a23.00546,23.00546,0,0,1-20.771,32.846Z" transform="translate(32.9191 -6.651)"/><path class="cls-3" d="M373.752,714.5166a28.35108,28.35108,0,0,1-16.095-5.043,27.41025,27.41025,0,0,1-11.485-16.951,28.66665,28.66665,0,0,1-7.684,11.774,27.79893,27.79893,0,0,1-18.96,7.491,28.61392,28.61392,0,0,1-21.644-9.916,28.03,28.03,0,0,1-6.602-21.255l.451-4.51c.365-4.159.917-8.377,1.642-12.54.055-.314.116-.626.183-.938.705-3.243,1.501-7.485,2.366-12.607,1.032-6.104,2.53-13.093,4.452-20.778,1.832-7.336,3.892-15.09,6.119-23.04.011-.038.021-.076.032-.113,2.112-7.393,4.889-17.732,8.254-30.731,4.129-15.779,5.614-22.181,6.136-24.784.753-3.779,1.336-7.232,1.729-10.247q.033-.255.072-.507a112.68411,112.68411,0,0,1,2.954-13.813c.027-.096.056-.194.085-.291a38.18788,38.18788,0,0,0,1.172-4.625,22.89653,22.89653,0,0,1,.604-2.762q.207-.726.398-1.432a26.68428,26.68428,0,0,1,5.361-15.709c2.726-3.813,9.048-10.314,20.87-11.367a35.89377,35.89377,0,0,1,3.895-.218,27.81634,27.81634,0,0,1,19.863,7.873,26.49866,26.49866,0,0,1,7.681,22.355c.072,1.392.115,2.804.127,4.223.168,2.721.392,7.671.684,15.071.006.15.01.299.013.449.147,7.446.37,13.552.66,18.151.293,4.698.667,9.485,1.113,14.246.475,5.222.944,10.458,1.412,15.767q.02852.318.047.634c.295,4.881.676,10.125,1.131,15.589.5,6.005,1.118,13.116,1.837,21.14.893,8.33,1.565,14.167,2,17.352.421,3.09.845,5.999,1.262,8.66.662,3.366,1.179,6.502,1.542,9.331.154,1.047.489,2.896,1.213,5.921q.12452.5235.225,1.052c.77,4.05,1.061,5.256,1.111,5.457q.138.555.251,1.114.4575,2.304.921,4.601.204,1.0095.318,2.034l.148,1.339a28.28831,28.28831,0,0,1-23.187,32.164,28.49273,28.49273,0,0,1-4.677.389" transform="translate(32.9191 -6.651)"/><path class="cls-3" d="M212.5688,717.0547a32.99517,32.99517,0,0,1-6.073-.556q-.672-.126-1.335-.292a54.56224,54.56224,0,0,1-8.747-2.99,41.68266,41.68266,0,0,1-12.272-7.831l-1.897-1.687a28.3734,28.3734,0,0,1-9.562-18.528,27.48517,27.48517,0,0,1,7.318-21.881,28.25018,28.25018,0,0,1,19.151-9.052c.579-.032,1.107-.046,1.631-.046a28.13848,28.13848,0,0,1,4.629.385c.235-1.728.308-2.732.33-3.21q-.372-3.09749-.74-5.889a30.58974,30.58974,0,0,0-.926-3.947,72.14883,72.14883,0,0,0-3.483-8.393,93.40559,93.40559,0,0,0-4.335-8.572,119.542,119.542,0,0,1-6.118-10.336c-1.566-2.97-3.135-6.026-4.646-9.048-1.677-3.356-3.347-7.143-4.963-11.258a102.6843,102.6843,0,0,1-5.463-19.71c-.027-.14-.053-.281-.077-.422a114.4254,114.4254,0,0,1-1.964-18.585c0-.342.008-.686.023-1.029a82.54771,82.54771,0,0,1,1.64-13.287c.035-.169.073-.337.112-.505.664-2.835,1.424-5.872,2.256-9.026a64.808,64.808,0,0,1,11.092-22.895,61.64674,61.64674,0,0,1,11.962-11.8c6.052-4.73,11.277-7.622,16.44-9.099q.57151-.1635,1.15-.297a54.73725,54.73725,0,0,1,12.413-1.29q.525,0,1.049.024a36.68,36.68,0,0,1,21.132,7.303c.189.145.375.292.559.443a40.33452,40.33452,0,0,1,9.113,10.383c.057.095.113.19.169.284a33.01976,33.01976,0,0,1,4.52,18.018v3.589a28.18117,28.18117,0,0,1-28.253,28.136,28.53,28.53,0,0,1-8.499-1.283c-.151.89-.268,1.875-.348,2.946a77.00615,77.00615,0,0,0,1.21,7.945c.008.042.015.085.023.127a52.80574,52.80574,0,0,0,2.228,9.137c.051.125.1.251.148.378.937,2.46,1.845,4.584,2.703,6.314,1.373,2.601,2.743,5.263,4.078,7.926,1.232,2.201,2.531,4.356,3.864,6.413q.168.258.329.521a163.009,163.009,0,0,1,7.704,14.77c.043.092.086.183.128.276a131.28841,131.28841,0,0,1,6.139,15.439,67.18937,67.18937,0,0,1,3.007,13.042q.4785,3.84449.96,8.161c.054.475.092.953.116,1.43a97.257,97.257,0,0,1-1.114,17.518c-.031.234-.067.469-.105.702a102.93729,102.93729,0,0,1-3.735,16.177,57.15412,57.15412,0,0,1-5.53,11.727,48.43148,48.43148,0,0,1-7.663,10.259,44.78536,44.78536,0,0,1-15.025,9.461c-.061.025-.121.049-.182.073a43.5224,43.5224,0,0,1-16.271,3.437" transform="translate(32.9191 -6.651)"/><path class="cls-3" d="M233.15091,526.02249v-4.903a4.06149,4.06149,0,0,0-1.167-1.167,9.65008,9.65008,0,0,0-2.335-.467,13.13388,13.13388,0,0,0-3.97.467q-1.39951.234-5.136,3.268a31.67446,31.67446,0,0,0-5.603,5.137,37.89069,37.89069,0,0,0-3.269,5.37,33.00426,33.00426,0,0,0-2.335,6.304,78.40279,78.40279,0,0,0-1.868,7.704,54.7,54.7,0,0,0-.934,7.705,76.25514,76.25514,0,0,0,1.635,12.608,74.47906,74.47906,0,0,0,3.502,13.541,94.069,94.069,0,0,0,3.735,8.639q2.10147,3.972,4.203,8.172,2.331,4.203,4.903,8.172,2.5665,4.203,6.537,12.608a108.532,108.532,0,0,1,5.137,12.841,45.4117,45.4117,0,0,1,2.101,8.872q.465,3.738.934,7.939a77.968,77.968,0,0,1-.934,13.308,84.08145,84.08145,0,0,1-2.802,12.491,33.79847,33.79847,0,0,1-3.501,7.355,26.99193,26.99193,0,0,1-4.203,5.837,23.039,23.039,0,0,1-7.471,4.435q-5.83952,2.33252-9.573,1.635a31.3532,31.3532,0,0,1-5.37-1.868,18.55763,18.55763,0,0,1-5.837-3.735l-2.102-1.869a5.30014,5.30014,0,0,1-1.867-3.619,4.6873,4.6873,0,0,1,1.284-3.851,5.20217,5.20217,0,0,1,3.619-1.751,5.1155,5.1155,0,0,1,3.735,1.283l2.102,1.868a15.26633,15.26633,0,0,0,3.035,2.102,22.86321,22.86321,0,0,0,3.502,1.167,8.94066,8.94066,0,0,0,3.502-1.167,12.48412,12.48412,0,0,0,3.97-2.102,22.79355,22.79355,0,0,0,2.801-3.735,46.79019,46.79019,0,0,0,2.568-5.604,50.29589,50.29589,0,0,0,2.102-10.507,52.80855,52.80855,0,0,0,.933-10.74q-.46948-3.966-.933-7.471a52.826,52.826,0,0,0-1.634-7.238,93.93845,93.93845,0,0,0-4.67-11.556,110.00309,110.00309,0,0,0-5.837-11.325,95.83336,95.83336,0,0,1-5.136-8.638q-2.33852-4.43253-4.436-8.639-2.1015-4.203-4.203-9.572a80.739,80.739,0,0,1-4.203-15.41,94.172,94.172,0,0,1-1.635-14.709,59.34963,59.34963,0,0,1,1.168-9.573q.93-3.96749,2.102-8.405a42.02844,42.02844,0,0,1,3.035-8.172,41.57371,41.57371,0,0,1,4.202-6.771,39.45231,39.45231,0,0,1,7.705-7.471q5.36848-4.203,8.639-5.137a32.55459,32.55459,0,0,1,7.237-.7,14.19448,14.19448,0,0,1,8.172,2.568,17.424,17.424,0,0,1,3.969,4.436,9.89745,9.89745,0,0,1,1.401,5.837v4.203a4.94712,4.94712,0,0,1-1.517,3.619,5.35515,5.35515,0,0,1-7.471,0,4.92888,4.92888,0,0,1-1.518-3.619" transform="translate(32.9191 -6.651)"/><path class="cls-3" d="M285.916,717.3604a46.79565,46.79565,0,0,1-13.426-2.233,44.9815,44.9815,0,0,1-21.109-12.978,43.3278,43.3278,0,0,1-6.909-9.394,68.082,68.082,0,0,1-4.09-9.177,114.49522,114.49522,0,0,1-4.037-15.669,135.01709,135.01709,0,0,1-3.002-17.875c-.341-4.06-.599-8.477-.765-13.105-.164-4.487-.248-9.288-.248-14.247,0-5.193.174-10.425.519-15.55.324-4.718.884-11.689,1.668-20.752.818-9.503,1.548-16.533,2.232-21.48.649-4.562,1.306-8.831,1.965-12.779.04-.241.085-.483.133-.723.921-4.608,2.049-9.115,3.352-13.396.088-.288.18-.573.279-.856,1.284-3.694,2.511-7.129,3.646-10.207q.1815-.489.383-.97a70.59755,70.59755,0,0,1,8.455-14.439c4.364-6.043,8.014-9.978,11.823-12.748q.585-.42449,1.194-.813a49.63234,49.63234,0,0,1,9.602-4.766q.55651-.20251,1.121-.376a40.06941,40.06941,0,0,1,11.763-1.758c.702,0,1.413.019,2.122.055a34.47244,34.47244,0,0,1,20.405,7.078q.495.37953.97.787l1.179,1.011a27.39164,27.39164,0,0,1,10.223,18.81,28.21,28.21,0,0,1-23.836,30.982,28.998,28.998,0,0,1-3.703.34c-.576,1.451-1.165,3.079-1.759,4.864a49.88545,49.88545,0,0,0-1.747,6.804c-.555,3.195-1.087,6.783-1.58,10.666-.506,3.96-1.141,10.292-1.889,18.834-.761,8.5-1.297,15.079-1.597,19.597-.278,3.999-.416,7.94-.416,11.785,0,4.247.073,8.313.217,12.081.137,3.703.345,7.172.621,10.335a105.30236,105.30236,0,0,0,1.923,10.95c.03.145.061.287.09.426a27.89751,27.89751,0,0,1,4.233-.322,29.35439,29.35439,0,0,1,2.987.154,28.45685,28.45685,0,0,1,18.694,9.754,27.69081,27.69081,0,0,1,6.587,21.23,28.36344,28.36344,0,0,1-8.856,17.651l-1.016,1.016a23.09288,23.09288,0,0,1-2.153,1.898,59.48422,59.48422,0,0,1-8.319,5.345,22.99107,22.99107,0,0,1-2.855,1.298,42.962,42.962,0,0,1-15.074,2.862" transform="translate(32.9191 -6.651)"/><path class="cls-3" d="M294.0874,526.02249l-1.634-1.401h-.934a4.73741,4.73741,0,0,0-2.568.233,11.99271,11.99271,0,0,0-2.802,1.401q-1.1715.70051-3.969,4.904a37.04149,37.04149,0,0,0-4.67,7.937q-1.635,3.738-3.269,8.639a72.66989,72.66989,0,0,0-2.568,10.04q-.936,5.373-1.751,11.791-.82049,6.423-1.984,19.728-1.17152,13.0785-1.635,20.08-.471,6.774-.466,13.308,0,6.77549.233,12.958.22953,6.189.7,11.557a127.7277,127.7277,0,0,0,2.335,13.659,108.28624,108.28624,0,0,0,2.802,11.323,41.0776,41.0776,0,0,0,1.868,4.437,12.96077,12.96077,0,0,0,2.101,2.802,10.0724,10.0724,0,0,0,2.335,2.101,11.59873,11.59873,0,0,0,3.735,1.4,17.10556,17.10556,0,0,0,4.436.934,5.36673,5.36673,0,0,0,2.101-.7,11.606,11.606,0,0,0,2.802-1.401l1.401-1.401a4.90005,4.90005,0,0,1,3.853-1.167,5.3368,5.3368,0,0,1,3.619,1.867,4.73546,4.73546,0,0,1,1.167,3.737,5.24051,5.24051,0,0,1-1.868,3.502l-1.401,1.4a37.20859,37.20859,0,0,1-5.136,3.269,20.01981,20.01981,0,0,1-7.004,1.401,25.78076,25.78076,0,0,1-6.888-1.284,22.76938,22.76938,0,0,1-6.888-3.153,21.8762,21.8762,0,0,1-3.969-3.502,20.30879,20.30879,0,0,1-3.502-4.669,44.83146,44.83146,0,0,1-2.685-6.071,101.28482,101.28482,0,0,1-3.152-12.607,115.33735,115.33735,0,0,1-2.568-14.943q-.471-5.604-.701-12.024-.23549-6.41851-.233-13.425,0-7.005.466-14.009.4665-6.768,1.635-20.312,1.16546-13.539,2.101-20.313.93-6.534,1.868-12.141,1.16551-5.83352,2.802-11.207,1.866-5.367,3.502-9.806a48.87714,48.87714,0,0,1,5.837-9.807q4.203-5.832,6.771-7.704a26.51334,26.51334,0,0,1,5.136-2.568,17.19009,17.19009,0,0,1,6.305-.7,11.53926,11.53926,0,0,1,7.237,2.334l1.635,1.401a4.5371,4.5371,0,0,1,1.867,3.386,5.139,5.139,0,0,1-1.05,3.851,5.33389,5.33389,0,0,1-3.502,1.986,4.55386,4.55386,0,0,1-3.853-1.051" transform="translate(32.9191 -6.651)"/><path class="cls-3" d="M314.16638,682.9201l.467-4.67q.465-5.367,1.401-10.739,1.16552-5.37,2.568-13.66,1.401-8.28448,4.086-19.028,2.682-10.73548,5.954-22.414,3.267-11.436,8.404-31.286,5.133-19.611,6.422-26.032,1.281-6.42,1.985-11.791a89.21856,89.21856,0,0,1,2.334-10.974,60.1273,60.1273,0,0,0,1.869-7.705q.92848-3.267,1.633-6.304a4.16349,4.16349,0,0,1-.35-1.284,4.00924,4.00924,0,0,1,1.051-2.451q1.16552-1.6305,4.435-1.868,3.73353-.465,5.254,1.05a3.39663,3.39663,0,0,1,1.051,3.386l-.234,1.867q.231,2.80349.234,5.837.228,3.273.699,15.177.2325,11.67746.701,19.145.46652,7.4745,1.168,14.943.70047,7.70548,1.401,15.643.465,7.704,1.168,16.11.70047,8.40447,1.867,21.479,1.401,13.08,2.102,18.212.699,5.139,1.4,9.573.9315,4.6725,1.4,8.405.46652,3.273,1.635,8.172.93151,4.902,1.4,6.77.4665,2.33848.936,4.67l.232,2.102a4.88653,4.88653,0,0,1-.816,3.968,4.987,4.987,0,0,1-3.387,2.219,5.26758,5.26758,0,0,1-3.968-.934,4.5777,4.5777,0,0,1-2.102-3.386l-.467-2.334a30.58526,30.58526,0,0,0-.699-3.97q-.4725-2.1-1.402-7.004-1.17-5.133-1.868-8.872-.471-3.50252-1.168-7.938-.93452-4.66949-1.632-10.04-.70349-5.367-2.102-18.678-.237-2.5665-.467-4.903h-1.402q-2.1.23553-6.77.233h-5.603q-1.872.23553-4.438.467a26.025,26.025,0,0,0-3.968.233h-.233q-1.872,6.77549-3.503,13.075-2.571,10.506-3.969,18.445-1.401,8.1765-2.334,13.542a56.40856,56.40856,0,0,0-1.401,9.573l-.467,4.902a5.69434,5.69434,0,0,1-1.868,3.62,4.71549,4.71549,0,0,1-3.853,1.284,5.3355,5.3355,0,0,1-3.618-1.868,5.05725,5.05725,0,0,1-1.168-3.969m24.982-69.343h.701q2.56649-.2295,3.969-.233,2.1-.231,6.771-.235a57.86985,57.86985,0,0,0,6.303-.233h.934q-.23548-3.267-.467-6.07-.70051-8.406-1.166-16.344-.70051-7.704-1.168-15.409-.70051-7.70553-1.168-15.176a11.83679,11.83679,0,0,1-.232-2.335q-1.401,7.005-6.538,26.149-4.6755,18.68248-7.939,29.886" transform="translate(32.9191 -6.651)"/><path class="cls-3" d="M444.91409,716.4268a29.04611,29.04611,0,0,1-15.362-4.539,27.733,27.733,0,0,1-8.41-7.123q-.669.71249-1.391,1.389a28.49793,28.49793,0,0,1-19.431,7.705,28.17931,28.17931,0,0,1-28.136-28.137v-2.102c0-.086-.007-.926-.184-3.63q-.21753-3.42752-.426-5.761-.09152-1.023-.092-2.049c0-.841-.047-1.801-.141-2.853q-.093-1.0215-.092-2.049c0-1.289-.06-2.79-.177-4.459q-.2655-3.94648-.496-8.655-.24-4.99349-.709-16.667c-.313-7.702-.476-14.124-.485-19.086l-.442-13.022c-.327-4.991-.493-10.011-.493-14.927,0-3.836-.14-7.973-.419-12.298q-.024-.37651-.036-.756c-.162-5.159-.283-12.207-.36-20.947-.085-9.09-.04-15.422.138-19.346.154-3.568.319-6.785.489-9.497q.0435-.705.132-1.409a30.23524,30.23524,0,0,0,.29-3.455q0-.75449.049-1.507a48.18129,48.18129,0,0,1,2.303-12.085l.477-1.427a27.72434,27.72434,0,0,1,13.739-16.87,28.26427,28.26427,0,0,1,13.175-3.299,27.93758,27.93758,0,0,1,3.973.284c.163-.003.328-.004.491-.004a27.7061,27.7061,0,0,1,20.439,8.947q.651.70349,1.25,1.439a28.253,28.253,0,0,1,47.307,20.786v8.172c0,2.01.07,4.562.209,7.583.016.351.024.704.024,1.055v7.406c.155,2.44.234,4.815.234,7.07,0,1.268.039,4.082.223,10.29.14,4.82.281,8.649.422,11.405.339,3.788.648,9.635.973,18.307.325,8.813.483,15.43.483,20.236,0,4.084.072,8.026.216,11.714.012.298.017.596.017.894,0,4.094-.039,10.385-.118,19.235-.083,8.801-.285,15.247-.617,19.686q-.231,5.94-.461,10.541c-.015.322-.038.643-.067.963-.246,2.692-.371,5.049-.371,7.01q0,.6105-.033,1.221c-.162,3.045-.323,5.492-.494,7.465a28.24833,28.24833,0,0,1-.496,3.604c-.012.065-.025.129-.039.194a33.39218,33.39218,0,0,1-1.97,6.117,29.83946,29.83946,0,0,1-6.332,9.629c-.038.039-.077.078-.116.116a26.22831,26.22831,0,0,1-18.657,7.496" transform="translate(32.9191 -6.651)"/><path class="cls-3" d="M402.8877,510.8457a4.78569,4.78569,0,0,1,3.619,1.635,5.34177,5.34177,0,0,1,1.518,3.735v1.401a27.5617,27.5617,0,0,0,.467,3.969q.70051,3.273,1.401,7.005.70052,3.7365,1.751,8.639,1.05,4.902,3.852,17.044,2.56655,12.141,4.203,18.911,1.63052,6.774,3.502,13.308,1.866,6.54,3.736,13.309,1.866,6.7755,4.435,19.145,2.3325,12.1425,3.97,18.212,1.63051,6.072,2.802,11.207.93,3.972,2.568,9.338.231-5.6025.467-15.642v-18.679q-.23552-6.303-.233-12.841,0-6.534-.467-18.912-.47246-12.372-.701-17.044-.471-4.902-.701-13.075-.234-8.169-.233-11.207,0-3.03-.233-6.07v-8.172q-.237-5.133-.234-8.872v-8.172a4.92818,4.92818,0,0,1,1.518-3.618,5.35636,5.35636,0,0,1,7.472,0,4.95043,4.95043,0,0,1,1.517,3.618v8.172q0,3.50248.233,8.638v8.172q.231,3.273.234,6.304,0,3.03748.233,10.974.231,7.941.467,12.375.4665,4.902.934,17.51.465,12.609.467,19.379,0,6.54.234,12.608,0,6.303-.117,19.028-.12,12.7275-.584,18.562-.23552,6.0735-.467,10.74-.471,5.139-.467,9.105-.23551,4.4385-.467,7.005a5.07092,5.07092,0,0,1-.117.817,13.15443,13.15443,0,0,1-.7,1.985,6.90086,6.90086,0,0,1-1.4,2.218,3.34565,3.34565,0,0,1-2.453.817,6.98182,6.98182,0,0,1-3.735-1.401,5.28219,5.28219,0,0,1-1.984-1.518,3.90537,3.90537,0,0,1-.702-1.4,9.51644,9.51644,0,0,1-.116-1.751q-.46949-2.103-1.635-6.305-1.17-4.203-2.1-6.77-.702-2.80352-3.035-10.39-2.33853-7.58551-3.503-12.958-1.401-5.133-3.035-11.207-1.63651-6.30448-3.969-18.679-2.5725-12.1365-4.437-18.444-1.635-6.7695-3.502-13.309-1.872-6.768-3.619-13.658-1.7505-6.885-4.435-19.028-2.688-12.138-3.853-17.279v-.466q-.23552,5.13753-.233,17.277.22949,12.6075.467,19.145.46353,8.406.466,15.176,0,6.54153.467,13.309.231,6.774.467,14.009,0,7.005.468,18.445.46348,11.442.7,16.226.22948,4.788.467,8.289.22953,3.2715.233,5.836c.153,1.715.234,3.426.234,5.137q.22947,2.57248.466,6.07.231,3.7395.234,5.837v2.102a4.78777,4.78777,0,0,1-1.634,3.619,5.34174,5.34174,0,0,1-3.735,1.518,5.1817,5.1817,0,0,1-5.137-5.137v-2.102q0-1.63052-.233-5.136-.237-3.732-.468-6.304,0-2.331-.234-4.902,0-2.8035-.233-6.072-.234-3.501-.467-8.172-.23549-4.902-.7-16.459-.471-11.559-.467-18.562-.23552-7.00351-.467-13.775-.471-7.00346-.467-13.776,0-6.53247-.467-13.774-.234-7.47147-.35-20.43-.1215-12.95851.116-18.095.231-5.36852.467-9.105a52.23063,52.23063,0,0,0,.467-6.304,25.04832,25.04832,0,0,1,1.168-6.304l.7-2.101a4.5505,4.5505,0,0,1,2.451-3.152,5.00952,5.00952,0,0,1,4.086-.351c.311.157.62.314.935.468a4.13725,4.13725,0,0,1,1.867-.468" transform="translate(32.9191 -6.651)"/></g><g class="cls-2"><path class="cls-5" d="M30.1978,581.05371c1.102-.646,2.185-1.315,3.301-1.943-1.116.628-2.25,1.207-3.374,1.814Z" transform="translate(32.9191 -6.651)"/><path class="cls-5" d="M97.7988,33.65381c107.045,226.081,81.952,463.135-64.3,545.457,146.252-82.322,361.927,19.21,499.667,228.013-107.045-226.08-81.952-463.13495,64.3-545.457-146.252,82.322-361.927-19.21-499.667-228.013" transform="translate(32.9191 -6.651)"/><path class="cls-6" d="M300.56491,796.3496l-195.128-35.235a50.54508,50.54508,0,0,1-40.759-58.723l63.245-350.244a50.54574,50.54574,0,0,1,58.723-40.76l195.128,35.235a50.5456,50.5456,0,0,1,40.759,58.723l-63.245,350.245a50.54561,50.54561,0,0,1-58.723,40.759" transform="translate(32.9191 -6.651)"/><path class="cls-7" d="M241.5488,739.7109a31.00043,31.00043,0,1,1-24.998-36.016,31,31,0,0,1,24.998,36.016" transform="translate(32.9191 -6.651)"/><rect class="cls-8" x="86.40325" y="415.09894" width="324.00006" height="222.87504" transform="translate(-280.97543 670.76959) rotate(-79.76416)"/></g><g class="cls-9"><rect class="cls-10" x="-49.58194" y="422.37181" width="533.00066" height="67.00044" transform="translate(-159.38156 153.5647) rotate(-28.70571)"/></g><g class="cls-11"><rect class="cls-12" x="-18.36202" y="503.38379" width="533.0004" height="18.99972" transform="translate(-182.9279 175.56672) rotate(-28.70571)"/></g><g class="cls-2"><path d="M177.481,464.27249v-6.338a5.2765,5.2765,0,0,0-1.509-1.509,12.55853,12.55853,0,0,0-3.018-.603,17.00561,17.00561,0,0,0-5.131.603q-1.812.303-6.64,4.225a40.9764,40.9764,0,0,0-7.244,6.641,49.05661,49.05661,0,0,0-4.225,6.941,42.70626,42.70626,0,0,0-3.018,8.149,101.62437,101.62437,0,0,0-2.415,9.96,70.65,70.65,0,0,0-1.207,9.96q0,5.13451,2.113,16.298a96.4147,96.4147,0,0,0,4.527,17.505,121.36255,121.36255,0,0,0,4.829,11.167q2.71649,5.136,5.433,10.564,3.012,5.433,6.338,10.563,3.31649,5.433,8.451,16.298a140.39885,140.39885,0,0,1,6.639,16.6,58.72181,58.72181,0,0,1,2.717,11.469q.60148,4.83151,1.207,10.262a101.06246,101.06246,0,0,1-1.207,17.203,109.051,109.051,0,0,1-3.622,16.147,43.6236,43.6236,0,0,1-4.527,9.507,34.84166,34.84166,0,0,1-5.433,7.546q-3.021,3.0135-9.658,5.735-7.548,3.012-12.375,2.112a40.58254,40.58254,0,0,1-6.941-2.414,24.03424,24.03424,0,0,1-7.545-4.829l-2.717-2.415a6.854,6.854,0,0,1-2.414-4.678,6.06306,6.06306,0,0,1,1.66-4.981,6.73032,6.73032,0,0,1,4.678-2.263,6.62134,6.62134,0,0,1,4.829,1.66l2.716,2.415a19.73274,19.73274,0,0,0,3.924,2.716,29.52273,29.52273,0,0,0,4.527,1.509,11.5283,11.5283,0,0,0,4.527-1.509,16.09818,16.09818,0,0,0,5.131-2.716,29.61982,29.61982,0,0,0,3.622-4.829,60.71544,60.71544,0,0,0,3.32-7.244q1.506-3.9195,2.716-13.581,1.50749-9.3525,1.207-13.884-.60752-5.12852-1.207-9.658a67.97127,67.97127,0,0,0-2.113-9.357,121.38545,121.38545,0,0,0-6.036-14.939,141.97267,141.97267,0,0,0-7.545-14.638,124.50019,124.50019,0,0,1-6.64-11.167q-3.021-5.73-5.735-11.168-2.7165-5.43151-5.432-12.374-3.021-7.24351-5.433-19.92a121.75913,121.75913,0,0,1-2.113-19.014,76.55418,76.55418,0,0,1,1.51-12.374q1.20148-5.12852,2.716-10.866a54.41581,54.41581,0,0,1,3.923-10.563,53.70329,53.70329,0,0,1,5.433-8.753,50.99356,50.99356,0,0,1,9.96-9.658q6.939-5.43146,11.167-6.64a42.13124,42.13124,0,0,1,9.356-.905q6.636.3045,10.564,3.32a22.54589,22.54589,0,0,1,5.131,5.734,12.80345,12.80345,0,0,1,1.811,7.545v5.433a6.39283,6.39283,0,0,1-1.962,4.679,6.92748,6.92748,0,0,1-9.659,0,6.3726,6.3726,0,0,1-1.961-4.679" transform="translate(32.9191 -6.651)"/><path class="cls-13" d="M177.481,464.27249v-6.338a5.2765,5.2765,0,0,0-1.509-1.509,12.55853,12.55853,0,0,0-3.018-.603,17.00561,17.00561,0,0,0-5.131.603q-1.812.303-6.64,4.225a40.9764,40.9764,0,0,0-7.244,6.641,49.05661,49.05661,0,0,0-4.225,6.941,42.70626,42.70626,0,0,0-3.018,8.149,101.62437,101.62437,0,0,0-2.415,9.96,70.65,70.65,0,0,0-1.207,9.96q0,5.13451,2.113,16.298a96.4147,96.4147,0,0,0,4.527,17.505,121.36255,121.36255,0,0,0,4.829,11.167q2.71649,5.136,5.433,10.564,3.012,5.433,6.338,10.563,3.31649,5.433,8.451,16.298a140.39885,140.39885,0,0,1,6.639,16.6,58.72181,58.72181,0,0,1,2.717,11.469q.60148,4.83151,1.207,10.262a101.06246,101.06246,0,0,1-1.207,17.203,109.051,109.051,0,0,1-3.622,16.147,43.6236,43.6236,0,0,1-4.527,9.507,34.84166,34.84166,0,0,1-5.433,7.546q-3.021,3.0135-9.658,5.735-7.548,3.012-12.375,2.112a40.58254,40.58254,0,0,1-6.941-2.414,24.03424,24.03424,0,0,1-7.545-4.829l-2.717-2.415a6.854,6.854,0,0,1-2.414-4.678,6.06306,6.06306,0,0,1,1.66-4.981,6.73032,6.73032,0,0,1,4.678-2.263,6.62134,6.62134,0,0,1,4.829,1.66l2.716,2.415a19.73274,19.73274,0,0,0,3.924,2.716,29.52273,29.52273,0,0,0,4.527,1.509,11.5283,11.5283,0,0,0,4.527-1.509,16.09818,16.09818,0,0,0,5.131-2.716,29.61982,29.61982,0,0,0,3.622-4.829,60.71544,60.71544,0,0,0,3.32-7.244q1.506-3.9195,2.716-13.581,1.50749-9.3525,1.207-13.884-.60752-5.12852-1.207-9.658a67.97127,67.97127,0,0,0-2.113-9.357,121.38545,121.38545,0,0,0-6.036-14.939,141.97267,141.97267,0,0,0-7.545-14.638,124.50019,124.50019,0,0,1-6.64-11.167q-3.021-5.73-5.735-11.168-2.7165-5.43151-5.432-12.374-3.021-7.24351-5.433-19.92a121.75913,121.75913,0,0,1-2.113-19.014,76.55418,76.55418,0,0,1,1.51-12.374q1.20148-5.12852,2.716-10.866a54.41581,54.41581,0,0,1,3.923-10.563,53.70329,53.70329,0,0,1,5.433-8.753,50.99356,50.99356,0,0,1,9.96-9.658q6.939-5.43146,11.167-6.64a42.13124,42.13124,0,0,1,9.356-.905q6.636.3045,10.564,3.32a22.54589,22.54589,0,0,1,5.131,5.734,12.80345,12.80345,0,0,1,1.811,7.545v5.433a6.39283,6.39283,0,0,1-1.962,4.679,6.92748,6.92748,0,0,1-9.659,0A6.3726,6.3726,0,0,1,177.481,464.27249Z" transform="translate(32.9191 -6.651)"/><path d="M256.25339,464.27249l-2.113-1.811h-1.207a6.13423,6.13423,0,0,0-3.32.302,15.46327,15.46327,0,0,0-3.622,1.811q-1.5135.90454-5.131,6.338a47.96551,47.96551,0,0,0-6.036,10.261q-2.115,4.833-4.225,11.168a93.82363,93.82363,0,0,0-3.32,12.978q-1.209,6.94647-2.264,15.242-1.0605,8.304-2.565,25.503-1.515,16.9065-2.113,25.956-.6075,8.757-.604,17.203,0,8.75848.302,16.751.297,8.001.906,14.94a164.89905,164.89905,0,0,0,3.018,17.656,139.918,139.918,0,0,0,3.622,14.639,53.627,53.627,0,0,0,2.414,5.734,16.74831,16.74831,0,0,0,2.716,3.621,12.99107,12.99107,0,0,0,3.019,2.717,15.01043,15.01043,0,0,0,4.829,1.81,22.10062,22.10062,0,0,0,5.734,1.208,6.94189,6.94189,0,0,0,2.716-.906,15.02493,15.02493,0,0,0,3.622-1.81l1.811-1.811a6.32819,6.32819,0,0,1,4.98-1.51,6.90382,6.90382,0,0,1,4.678,2.415,6.11138,6.11138,0,0,1,1.509,4.829,6.77633,6.77633,0,0,1-2.414,4.528l-1.811,1.81a48.21471,48.21471,0,0,1-6.64,4.226,25.87993,25.87993,0,0,1-9.054,1.81,33.27787,33.27787,0,0,1-8.904-1.66,29.42406,29.42406,0,0,1-8.904-4.074,28.39784,28.39784,0,0,1-5.13-4.527,26.2663,26.2663,0,0,1-4.527-6.036,58.14537,58.14537,0,0,1-3.472-7.848,131.09547,131.09547,0,0,1-4.074-16.298,149.13282,149.13282,0,0,1-3.32-19.315q-.6075-7.24351-.905-15.544-.30448-8.298-.302-17.355,0-9.054.603-18.108.6015-8.751,2.113-26.258,1.5075-17.50053,2.717-26.258,1.20149-8.44651,2.414-15.694,1.506-7.542,3.622-14.487,2.412-6.939,4.527-12.677a63.14526,63.14526,0,0,1,7.545-12.676q5.433-7.54052,8.753-9.96a34.25152,34.25152,0,0,1,6.64-3.32,22.22959,22.22959,0,0,1,8.149-.906,14.91544,14.91544,0,0,1,9.356,3.019l2.113,1.811a5.86727,5.86727,0,0,1,2.414,4.376,6.64612,6.64612,0,0,1-1.358,4.98,6.88657,6.88657,0,0,1-4.527,2.565,5.8829,5.8829,0,0,1-4.98-1.358" transform="translate(32.9191 -6.651)"/><path class="cls-13" d="M256.25339,464.27249l-2.113-1.811h-1.207a6.13423,6.13423,0,0,0-3.32.302,15.46327,15.46327,0,0,0-3.622,1.811q-1.5135.90454-5.131,6.338a47.96551,47.96551,0,0,0-6.036,10.261q-2.115,4.833-4.225,11.168a93.82363,93.82363,0,0,0-3.32,12.978q-1.209,6.94647-2.264,15.242-1.0605,8.304-2.565,25.503-1.515,16.9065-2.113,25.956-.6075,8.757-.604,17.203,0,8.75848.302,16.751.297,8.001.906,14.94a164.89905,164.89905,0,0,0,3.018,17.656,139.918,139.918,0,0,0,3.622,14.639,53.627,53.627,0,0,0,2.414,5.734,16.74831,16.74831,0,0,0,2.716,3.621,12.99107,12.99107,0,0,0,3.019,2.717,15.01043,15.01043,0,0,0,4.829,1.81,22.10062,22.10062,0,0,0,5.734,1.208,6.94189,6.94189,0,0,0,2.716-.906,15.02493,15.02493,0,0,0,3.622-1.81l1.811-1.811a6.32819,6.32819,0,0,1,4.98-1.51,6.90382,6.90382,0,0,1,4.678,2.415,6.11138,6.11138,0,0,1,1.509,4.829,6.77633,6.77633,0,0,1-2.414,4.528l-1.811,1.81a48.21471,48.21471,0,0,1-6.64,4.226,25.87993,25.87993,0,0,1-9.054,1.81,33.27787,33.27787,0,0,1-8.904-1.66,29.42406,29.42406,0,0,1-8.904-4.074,28.39784,28.39784,0,0,1-5.13-4.527,26.2663,26.2663,0,0,1-4.527-6.036,58.14537,58.14537,0,0,1-3.472-7.848,131.09547,131.09547,0,0,1-4.074-16.298,149.13282,149.13282,0,0,1-3.32-19.315q-.6075-7.24351-.905-15.544-.30448-8.298-.302-17.355,0-9.054.603-18.108.6015-8.751,2.113-26.258,1.5075-17.50053,2.717-26.258,1.20149-8.44651,2.414-15.694,1.506-7.542,3.622-14.487,2.412-6.939,4.527-12.677a63.14526,63.14526,0,0,1,7.545-12.676q5.433-7.54052,8.753-9.96a34.25152,34.25152,0,0,1,6.64-3.32,22.22959,22.22959,0,0,1,8.149-.906,14.91544,14.91544,0,0,1,9.356,3.019l2.113,1.811a5.86727,5.86727,0,0,1,2.414,4.376,6.64612,6.64612,0,0,1-1.358,4.98,6.88657,6.88657,0,0,1-4.527,2.565A5.8829,5.8829,0,0,1,256.25339,464.27249Z" transform="translate(32.9191 -6.651)"/><path d="M282.20889,667.0921l.604-6.036q.6-6.939,1.811-13.884,1.506-6.939,3.319-17.656,1.812-10.71,5.282-24.598,3.46652-13.878,7.696-28.974,4.224-14.784,10.866-40.443,6.636-25.353,8.3-33.652,1.6545-8.29953,2.565-15.243a115.71193,115.71193,0,0,1,3.018-14.184,77.20109,77.20109,0,0,0,2.415-9.96q1.20153-4.224,2.112-8.15a5.42993,5.42993,0,0,1-.452-1.66q-.156-1.053,1.358-3.169,1.506-2.1075,5.735-2.414,4.824-.6015,6.791,1.359a4.38824,4.38824,0,0,1,1.357,4.376l-.301,2.414q.297,3.62252.301,7.546.29852,4.23.906,19.618.297,15.09449.905,24.748.6,9.663,1.51,19.316.9045,9.96,1.81,20.222.6015,9.95847,1.51,20.825.906,10.86452,2.414,27.767,1.8105,16.9065,2.717,23.542.90454,6.64051,1.81,12.374,1.20154,6.04048,1.811,10.865.6,4.23,2.113,10.564,1.2015,6.33749,1.811,8.752.6,3.021,1.207,6.036l.303,2.717a6.33242,6.33242,0,0,1-1.057,5.131,6.44974,6.44974,0,0,1-4.377,2.867,6.80787,6.80787,0,0,1-5.131-1.207,5.92084,5.92084,0,0,1-2.717-4.377l-.603-3.017a39.58548,39.58548,0,0,0-.904-5.131q-.61053-2.718-1.813-9.055-1.512-6.636-2.414-11.469-.6075-4.527-1.509-10.261-1.209-6.03449-2.112-12.979-.906-6.939-2.717-24.144-.3045-3.318-.603-6.339h-1.811q-2.7165.3045-8.753.303h-7.244q-2.418.303-5.734.603a33.60819,33.60819,0,0,0-5.131.302h-.302q-2.418,8.757-4.527,16.901-3.324,13.58251-5.131,23.844-1.8105,10.5675-3.018,17.505a72.97,72.97,0,0,0-1.811,12.374l-.603,6.339a7.36256,7.36256,0,0,1-2.415,4.677,6.09,6.09,0,0,1-4.98,1.661,6.89937,6.89937,0,0,1-4.678-2.415,6.54411,6.54411,0,0,1-1.509-5.131m32.294-89.639h.906c2.211-.198,3.923-.302,5.131-.302q2.715-.297,8.752-.302a75.0874,75.0874,0,0,0,8.149-.301h1.208q-.306-4.224-.604-7.848-.906-10.86447-1.51-21.127-.9045-9.96-1.509-19.92-.9045-9.95852-1.508-19.617a15.19916,15.19916,0,0,1-.302-3.019q-1.812,9.05548-8.451,33.804-6.042,24.15-10.262,38.632" transform="translate(32.9191 -6.651)"/><path class="cls-13" d="M282.20889,667.0921l.604-6.036q.6-6.939,1.811-13.884,1.506-6.939,3.319-17.656,1.812-10.71,5.282-24.598,3.46652-13.878,7.696-28.974,4.224-14.784,10.866-40.443,6.636-25.353,8.3-33.652,1.6545-8.29953,2.565-15.243a115.71193,115.71193,0,0,1,3.018-14.184,77.20109,77.20109,0,0,0,2.415-9.96q1.20153-4.224,2.112-8.15a5.42993,5.42993,0,0,1-.452-1.66q-.156-1.053,1.358-3.169,1.506-2.1075,5.735-2.414,4.824-.6015,6.791,1.359a4.38824,4.38824,0,0,1,1.357,4.376l-.301,2.414q.297,3.62252.301,7.546.29852,4.23.906,19.618.297,15.09449.905,24.748.6,9.663,1.51,19.316.9045,9.96,1.81,20.222.6015,9.95847,1.51,20.825.906,10.86452,2.414,27.767,1.8105,16.9065,2.717,23.542.90454,6.64051,1.81,12.374,1.20154,6.04048,1.811,10.865.6,4.23,2.113,10.564,1.2015,6.33749,1.811,8.752.6,3.021,1.207,6.036l.303,2.717a6.33242,6.33242,0,0,1-1.057,5.131,6.44974,6.44974,0,0,1-4.377,2.867,6.80787,6.80787,0,0,1-5.131-1.207,5.92084,5.92084,0,0,1-2.717-4.377l-.603-3.017a39.58548,39.58548,0,0,0-.904-5.131q-.61053-2.718-1.813-9.055-1.512-6.636-2.414-11.469-.6075-4.527-1.509-10.261-1.209-6.03449-2.112-12.979-.906-6.939-2.717-24.144-.3045-3.318-.603-6.339h-1.811q-2.7165.3045-8.753.303h-7.244q-2.418.303-5.734.603a33.60819,33.60819,0,0,0-5.131.302h-.302q-2.418,8.757-4.527,16.901-3.324,13.58251-5.131,23.844-1.8105,10.5675-3.018,17.505a72.97,72.97,0,0,0-1.811,12.374l-.603,6.339a7.36256,7.36256,0,0,1-2.415,4.677,6.09,6.09,0,0,1-4.98,1.661,6.89937,6.89937,0,0,1-4.678-2.415A6.54411,6.54411,0,0,1,282.20889,667.0921Zm32.294-89.639h.906c2.211-.198,3.923-.302,5.131-.302q2.715-.297,8.752-.302a75.0874,75.0874,0,0,0,8.149-.301h1.208q-.306-4.224-.604-7.848-.906-10.86447-1.51-21.127-.9045-9.96-1.509-19.92-.9045-9.95852-1.508-19.617a15.19916,15.19916,0,0,1-.302-3.019q-1.812,9.05548-8.451,33.804Q318.72288,562.97111,314.5029,577.45309Z" transform="translate(32.9191 -6.651)"/><path d="M396.89749,444.6543a6.18777,6.18777,0,0,1,4.678,2.113,6.908,6.908,0,0,1,1.962,4.829v1.811a35.754,35.754,0,0,0,.603,5.131q.906,4.23,1.811,9.054.90448,4.8315,2.263,11.167,1.359,6.339,4.981,22.033,3.318,15.69748,5.432,24.447,2.109,8.757,4.528,17.203,2.41048,8.454,4.829,17.204,2.41053,8.757,5.734,24.748,3.0135,15.69749,5.131,23.542,2.1075,7.85248,3.621,14.488,1.203,5.13449,3.321,12.072.297-7.24349.603-20.222v-24.145q-.3045-8.14947-.302-16.6,0-8.44647-.603-24.446-.6075-15.99449-.905-22.033-.61047-6.339-.906-16.902-.30451-10.56153-.302-14.487,0-3.918-.302-7.847v-10.563q-.303-6.636-.302-11.47v-10.564a6.37719,6.37719,0,0,1,1.962-4.677,6.92375,6.92375,0,0,1,9.658,0,6.39269,6.39269,0,0,1,1.962,4.677v10.564q0,4.52851.302,11.168v10.563q.297,4.23.302,8.149,0,3.9255.301,14.185.29847,10.26449.604,15.996.60152,6.339,1.208,22.636.6,16.299.603,25.051,0,8.454.302,16.298,0,8.148-.151,24.598-.156,16.45352-.754,23.995-.3045,7.851-.605,13.882-.6075,6.6435-.603,11.772-.303,5.736-.604,9.054a6.58162,6.58162,0,0,1-.15,1.056,17.16038,17.16038,0,0,1-.906,2.566,8.84612,8.84612,0,0,1-1.811,2.867,4.31912,4.31912,0,0,1-3.169,1.057,9.03136,9.03136,0,0,1-4.829-1.811,6.866,6.866,0,0,1-2.565-1.962,5.02,5.02,0,0,1-.906-1.811,12.29876,12.29876,0,0,1-.151-2.264q-.6075-2.7165-2.112-8.149-1.5135-5.433-2.717-8.752-.906-3.62248-3.923-13.431-3.021-9.804-4.527-16.751-1.8105-6.6345-3.924-14.486-2.115-8.151-5.131-24.146-3.32551-15.69-5.734-23.844-2.11647-8.7495-4.528-17.203-2.418-8.751-4.677-17.656-2.265-8.89947-5.735-24.598-3.47252-15.69-4.98-22.335v-.603q-.3045,6.642-.302,22.335.297,16.29749.603,24.748.603,10.866.604,19.618,0,8.454.604,17.204.297,8.757.604,18.108,0,9.05548.604,23.844.6,14.79148.905,20.976.297,6.1905.603,10.715.29847,4.23.302,7.545.297,3.324.302,6.64.297,3.324.603,7.847.29852,4.83148.302,7.545v2.717a6.18322,6.18322,0,0,1-2.112,4.677,6.90525,6.90525,0,0,1-4.829,1.962,6.69784,6.69784,0,0,1-6.64-6.639v-2.717q0-2.109-.302-6.64-.30451-4.824-.604-8.148,0-3.015-.302-6.339,0-3.621-.302-7.847-.303-4.527-.603-10.563-.303-6.339-.906-21.279-.6075-14.94-.603-23.994-.3045-9.054-.604-17.806-.6075-9.05553-.603-17.808,0-8.44647-.604-17.807-.30451-9.65547-.453-26.409-.15449-16.75049.152-23.39.29549-6.939.603-11.771a67.73091,67.73091,0,0,0,.604-8.149,32.419,32.419,0,0,1,1.508-8.149l.906-2.717a5.88067,5.88067,0,0,1,3.169-4.074,6.47769,6.47769,0,0,1,5.282-.453c.4.203.802.406,1.207.604a5.36267,5.36267,0,0,1,2.415-.604" transform="translate(32.9191 -6.651)"/><path class="cls-13" d="M396.89749,444.6543a6.18777,6.18777,0,0,1,4.678,2.113,6.908,6.908,0,0,1,1.962,4.829v1.811a35.754,35.754,0,0,0,.603,5.131q.906,4.23,1.811,9.054.90448,4.8315,2.263,11.167,1.359,6.339,4.981,22.033,3.318,15.69748,5.432,24.447,2.109,8.757,4.528,17.203,2.41048,8.454,4.829,17.204,2.41053,8.757,5.734,24.748,3.0135,15.69749,5.131,23.542,2.1075,7.85248,3.621,14.488,1.203,5.13449,3.321,12.072.297-7.24349.603-20.222v-24.145q-.3045-8.14947-.302-16.6,0-8.44647-.603-24.446-.6075-15.99449-.905-22.033-.61047-6.339-.906-16.902-.30451-10.56153-.302-14.487,0-3.918-.302-7.847v-10.563q-.303-6.636-.302-11.47v-10.564a6.37719,6.37719,0,0,1,1.962-4.677,6.92375,6.92375,0,0,1,9.658,0,6.39269,6.39269,0,0,1,1.962,4.677v10.564q0,4.52851.302,11.168v10.563q.297,4.23.302,8.149,0,3.9255.301,14.185.29847,10.26449.604,15.996.60152,6.339,1.208,22.636.6,16.299.603,25.051,0,8.454.302,16.298,0,8.148-.151,24.598-.156,16.45352-.754,23.995-.3045,7.851-.605,13.882-.6075,6.6435-.603,11.772-.303,5.736-.604,9.054a6.58162,6.58162,0,0,1-.15,1.056,17.16038,17.16038,0,0,1-.906,2.566,8.84612,8.84612,0,0,1-1.811,2.867,4.31912,4.31912,0,0,1-3.169,1.057,9.03136,9.03136,0,0,1-4.829-1.811,6.866,6.866,0,0,1-2.565-1.962,5.02,5.02,0,0,1-.906-1.811,12.29876,12.29876,0,0,1-.151-2.264q-.6075-2.7165-2.112-8.149-1.5135-5.433-2.717-8.752-.906-3.62248-3.923-13.431-3.021-9.804-4.527-16.751-1.8105-6.6345-3.924-14.486-2.115-8.151-5.131-24.146-3.32551-15.69-5.734-23.844-2.11647-8.7495-4.528-17.203-2.418-8.751-4.677-17.656-2.265-8.89947-5.735-24.598-3.47252-15.69-4.98-22.335v-.603q-.3045,6.642-.302,22.335.297,16.29749.603,24.748.603,10.866.604,19.618,0,8.454.604,17.204.297,8.757.604,18.108,0,9.05548.604,23.844.6,14.79148.905,20.976.297,6.1905.603,10.715.29847,4.23.302,7.545.297,3.324.302,6.64.297,3.324.603,7.847.29852,4.83148.302,7.545v2.717a6.18322,6.18322,0,0,1-2.112,4.677,6.90525,6.90525,0,0,1-4.829,1.962,6.69784,6.69784,0,0,1-6.64-6.639v-2.717q0-2.109-.302-6.64-.30451-4.824-.604-8.148,0-3.015-.302-6.339,0-3.621-.302-7.847-.303-4.527-.603-10.563-.303-6.339-.906-21.279-.6075-14.94-.603-23.994-.3045-9.054-.604-17.806-.6075-9.05553-.603-17.808,0-8.44647-.604-17.807-.30451-9.65547-.453-26.409-.15449-16.75049.152-23.39.29549-6.939.603-11.771a67.73091,67.73091,0,0,0,.604-8.149,32.419,32.419,0,0,1,1.508-8.149l.906-2.717a5.88067,5.88067,0,0,1,3.169-4.074,6.47769,6.47769,0,0,1,5.282-.453c.4.203.802.406,1.207.604A5.36267,5.36267,0,0,1,396.89749,444.6543Z" transform="translate(32.9191 -6.651)"/><path class="cls-3" d="M177.481,464.27249v-6.338a5.2765,5.2765,0,0,0-1.509-1.509,12.55853,12.55853,0,0,0-3.018-.603,17.00561,17.00561,0,0,0-5.131.603q-1.812.303-6.64,4.225a40.9764,40.9764,0,0,0-7.244,6.641,49.05661,49.05661,0,0,0-4.225,6.941,42.70626,42.70626,0,0,0-3.018,8.149,101.62437,101.62437,0,0,0-2.415,9.96,70.65,70.65,0,0,0-1.207,9.96q0,5.13451,2.113,16.298a96.4147,96.4147,0,0,0,4.527,17.505,121.36255,121.36255,0,0,0,4.829,11.167q2.71649,5.136,5.433,10.564,3.012,5.433,6.338,10.563,3.31649,5.433,8.451,16.298a140.39885,140.39885,0,0,1,6.639,16.6,58.72181,58.72181,0,0,1,2.717,11.469q.60148,4.83151,1.207,10.262a101.06246,101.06246,0,0,1-1.207,17.203,109.051,109.051,0,0,1-3.622,16.147,43.6236,43.6236,0,0,1-4.527,9.507,34.84166,34.84166,0,0,1-5.433,7.546q-3.021,3.0135-9.658,5.735-7.548,3.012-12.375,2.112a40.58254,40.58254,0,0,1-6.941-2.414,24.03424,24.03424,0,0,1-7.545-4.829l-2.717-2.415a6.854,6.854,0,0,1-2.414-4.678,6.06306,6.06306,0,0,1,1.66-4.981,6.73032,6.73032,0,0,1,4.678-2.263,6.62134,6.62134,0,0,1,4.829,1.66l2.716,2.415a19.73274,19.73274,0,0,0,3.924,2.716,29.52273,29.52273,0,0,0,4.527,1.509,11.5283,11.5283,0,0,0,4.527-1.509,16.09818,16.09818,0,0,0,5.131-2.716,29.61982,29.61982,0,0,0,3.622-4.829,60.71544,60.71544,0,0,0,3.32-7.244q1.506-3.9195,2.716-13.581,1.50749-9.3525,1.207-13.884-.60752-5.12852-1.207-9.658a67.97127,67.97127,0,0,0-2.113-9.357,121.38545,121.38545,0,0,0-6.036-14.939,141.97267,141.97267,0,0,0-7.545-14.638,124.50019,124.50019,0,0,1-6.64-11.167q-3.021-5.73-5.735-11.168-2.7165-5.43151-5.432-12.374-3.021-7.24351-5.433-19.92a121.75913,121.75913,0,0,1-2.113-19.014,76.55418,76.55418,0,0,1,1.51-12.374q1.20148-5.12852,2.716-10.866a54.41581,54.41581,0,0,1,3.923-10.563,53.70329,53.70329,0,0,1,5.433-8.753,50.99356,50.99356,0,0,1,9.96-9.658q6.939-5.43146,11.167-6.64a42.13124,42.13124,0,0,1,9.356-.905q6.636.3045,10.564,3.32a22.54589,22.54589,0,0,1,5.131,5.734,12.80345,12.80345,0,0,1,1.811,7.545v5.433a6.39283,6.39283,0,0,1-1.962,4.679,6.92748,6.92748,0,0,1-9.659,0,6.3726,6.3726,0,0,1-1.961-4.679" transform="translate(32.9191 -6.651)"/><path class="cls-14" d="M177.481,464.27249v-6.338a5.2765,5.2765,0,0,0-1.509-1.509,12.55853,12.55853,0,0,0-3.018-.603,17.00561,17.00561,0,0,0-5.131.603q-1.812.303-6.64,4.225a40.9764,40.9764,0,0,0-7.244,6.641,49.05661,49.05661,0,0,0-4.225,6.941,42.70626,42.70626,0,0,0-3.018,8.149,101.62437,101.62437,0,0,0-2.415,9.96,70.65,70.65,0,0,0-1.207,9.96q0,5.13451,2.113,16.298a96.4147,96.4147,0,0,0,4.527,17.505,121.36255,121.36255,0,0,0,4.829,11.167q2.71649,5.136,5.433,10.564,3.012,5.433,6.338,10.563,3.31649,5.433,8.451,16.298a140.39885,140.39885,0,0,1,6.639,16.6,58.72181,58.72181,0,0,1,2.717,11.469q.60148,4.83151,1.207,10.262a101.06246,101.06246,0,0,1-1.207,17.203,109.051,109.051,0,0,1-3.622,16.147,43.6236,43.6236,0,0,1-4.527,9.507,34.84166,34.84166,0,0,1-5.433,7.546q-3.021,3.0135-9.658,5.735-7.548,3.012-12.375,2.112a40.58254,40.58254,0,0,1-6.941-2.414,24.03424,24.03424,0,0,1-7.545-4.829l-2.717-2.415a6.854,6.854,0,0,1-2.414-4.678,6.06306,6.06306,0,0,1,1.66-4.981,6.73032,6.73032,0,0,1,4.678-2.263,6.62134,6.62134,0,0,1,4.829,1.66l2.716,2.415a19.73274,19.73274,0,0,0,3.924,2.716,29.52273,29.52273,0,0,0,4.527,1.509,11.5283,11.5283,0,0,0,4.527-1.509,16.09818,16.09818,0,0,0,5.131-2.716,29.61982,29.61982,0,0,0,3.622-4.829,60.71544,60.71544,0,0,0,3.32-7.244q1.506-3.9195,2.716-13.581,1.50749-9.3525,1.207-13.884-.60752-5.12852-1.207-9.658a67.97127,67.97127,0,0,0-2.113-9.357,121.38545,121.38545,0,0,0-6.036-14.939,141.97267,141.97267,0,0,0-7.545-14.638,124.50019,124.50019,0,0,1-6.64-11.167q-3.021-5.73-5.735-11.168-2.7165-5.43151-5.432-12.374-3.021-7.24351-5.433-19.92a121.75913,121.75913,0,0,1-2.113-19.014,76.55418,76.55418,0,0,1,1.51-12.374q1.20148-5.12852,2.716-10.866a54.41581,54.41581,0,0,1,3.923-10.563,53.70329,53.70329,0,0,1,5.433-8.753,50.99356,50.99356,0,0,1,9.96-9.658q6.939-5.43146,11.167-6.64a42.13124,42.13124,0,0,1,9.356-.905q6.636.3045,10.564,3.32a22.54589,22.54589,0,0,1,5.131,5.734,12.80345,12.80345,0,0,1,1.811,7.545v5.433a6.39283,6.39283,0,0,1-1.962,4.679,6.92748,6.92748,0,0,1-9.659,0A6.3726,6.3726,0,0,1,177.481,464.27249Z" transform="translate(32.9191 -6.651)"/><path class="cls-3" d="M256.25339,464.27249l-2.113-1.811h-1.207a6.13423,6.13423,0,0,0-3.32.302,15.46327,15.46327,0,0,0-3.622,1.811q-1.5135.90454-5.131,6.338a47.96551,47.96551,0,0,0-6.036,10.261q-2.115,4.833-4.225,11.168a93.82363,93.82363,0,0,0-3.32,12.978q-1.209,6.94647-2.264,15.242-1.0605,8.304-2.565,25.503-1.515,16.9065-2.113,25.956-.6075,8.757-.604,17.203,0,8.75848.302,16.751.297,8.001.906,14.94a164.89905,164.89905,0,0,0,3.018,17.656,139.918,139.918,0,0,0,3.622,14.639,53.627,53.627,0,0,0,2.414,5.734,16.74831,16.74831,0,0,0,2.716,3.621,12.99107,12.99107,0,0,0,3.019,2.717,15.01043,15.01043,0,0,0,4.829,1.81,22.10062,22.10062,0,0,0,5.734,1.208,6.94189,6.94189,0,0,0,2.716-.906,15.02493,15.02493,0,0,0,3.622-1.81l1.811-1.811a6.32819,6.32819,0,0,1,4.98-1.51,6.90382,6.90382,0,0,1,4.678,2.415,6.11138,6.11138,0,0,1,1.509,4.829,6.77633,6.77633,0,0,1-2.414,4.528l-1.811,1.81a48.21471,48.21471,0,0,1-6.64,4.226,25.87993,25.87993,0,0,1-9.054,1.81,33.27787,33.27787,0,0,1-8.904-1.66,29.42406,29.42406,0,0,1-8.904-4.074,28.39784,28.39784,0,0,1-5.13-4.527,26.2663,26.2663,0,0,1-4.527-6.036,58.14537,58.14537,0,0,1-3.472-7.848,131.09547,131.09547,0,0,1-4.074-16.298,149.13282,149.13282,0,0,1-3.32-19.315q-.6075-7.24351-.905-15.544-.30448-8.298-.302-17.355,0-9.054.603-18.108.6015-8.751,2.113-26.258,1.5075-17.50053,2.717-26.258,1.20149-8.44651,2.414-15.694,1.506-7.542,3.622-14.487,2.412-6.939,4.527-12.677a63.14526,63.14526,0,0,1,7.545-12.676q5.433-7.54052,8.753-9.96a34.25152,34.25152,0,0,1,6.64-3.32,22.22959,22.22959,0,0,1,8.149-.906,14.91544,14.91544,0,0,1,9.356,3.019l2.113,1.811a5.86727,5.86727,0,0,1,2.414,4.376,6.64612,6.64612,0,0,1-1.358,4.98,6.88657,6.88657,0,0,1-4.527,2.565,5.8829,5.8829,0,0,1-4.98-1.358" transform="translate(32.9191 -6.651)"/><path class="cls-14" d="M256.25339,464.27249l-2.113-1.811h-1.207a6.13423,6.13423,0,0,0-3.32.302,15.46327,15.46327,0,0,0-3.622,1.811q-1.5135.90454-5.131,6.338a47.96551,47.96551,0,0,0-6.036,10.261q-2.115,4.833-4.225,11.168a93.82363,93.82363,0,0,0-3.32,12.978q-1.209,6.94647-2.264,15.242-1.0605,8.304-2.565,25.503-1.515,16.9065-2.113,25.956-.6075,8.757-.604,17.203,0,8.75848.302,16.751.297,8.001.906,14.94a164.89905,164.89905,0,0,0,3.018,17.656,139.918,139.918,0,0,0,3.622,14.639,53.627,53.627,0,0,0,2.414,5.734,16.74831,16.74831,0,0,0,2.716,3.621,12.99107,12.99107,0,0,0,3.019,2.717,15.01043,15.01043,0,0,0,4.829,1.81,22.10062,22.10062,0,0,0,5.734,1.208,6.94189,6.94189,0,0,0,2.716-.906,15.02493,15.02493,0,0,0,3.622-1.81l1.811-1.811a6.32819,6.32819,0,0,1,4.98-1.51,6.90382,6.90382,0,0,1,4.678,2.415,6.11138,6.11138,0,0,1,1.509,4.829,6.77633,6.77633,0,0,1-2.414,4.528l-1.811,1.81a48.21471,48.21471,0,0,1-6.64,4.226,25.87993,25.87993,0,0,1-9.054,1.81,33.27787,33.27787,0,0,1-8.904-1.66,29.42406,29.42406,0,0,1-8.904-4.074,28.39784,28.39784,0,0,1-5.13-4.527,26.2663,26.2663,0,0,1-4.527-6.036,58.14537,58.14537,0,0,1-3.472-7.848,131.09547,131.09547,0,0,1-4.074-16.298,149.13282,149.13282,0,0,1-3.32-19.315q-.6075-7.24351-.905-15.544-.30448-8.298-.302-17.355,0-9.054.603-18.108.6015-8.751,2.113-26.258,1.5075-17.50053,2.717-26.258,1.20149-8.44651,2.414-15.694,1.506-7.542,3.622-14.487,2.412-6.939,4.527-12.677a63.14526,63.14526,0,0,1,7.545-12.676q5.433-7.54052,8.753-9.96a34.25152,34.25152,0,0,1,6.64-3.32,22.22959,22.22959,0,0,1,8.149-.906,14.91544,14.91544,0,0,1,9.356,3.019l2.113,1.811a5.86727,5.86727,0,0,1,2.414,4.376,6.64612,6.64612,0,0,1-1.358,4.98,6.88657,6.88657,0,0,1-4.527,2.565A5.8829,5.8829,0,0,1,256.25339,464.27249Z" transform="translate(32.9191 -6.651)"/><path class="cls-3" d="M282.20889,667.0921l.604-6.036q.6-6.939,1.811-13.884,1.506-6.939,3.319-17.656,1.812-10.71,5.282-24.598,3.46652-13.878,7.696-28.974,4.224-14.784,10.866-40.443,6.636-25.353,8.3-33.652,1.6545-8.29953,2.565-15.243a115.71193,115.71193,0,0,1,3.018-14.184,77.20109,77.20109,0,0,0,2.415-9.96q1.20153-4.224,2.112-8.15a5.42993,5.42993,0,0,1-.452-1.66q-.156-1.053,1.358-3.169,1.506-2.1075,5.735-2.414,4.824-.6015,6.791,1.359a4.38824,4.38824,0,0,1,1.357,4.376l-.301,2.414q.297,3.62252.301,7.546.29852,4.23.906,19.618.297,15.09449.905,24.748.6,9.663,1.51,19.316.9045,9.96,1.81,20.222.6015,9.95847,1.51,20.825.906,10.86452,2.414,27.767,1.8105,16.9065,2.717,23.542.90454,6.64051,1.81,12.374,1.20154,6.04048,1.811,10.865.6,4.23,2.113,10.564,1.2015,6.33749,1.811,8.752.6,3.021,1.207,6.036l.303,2.717a6.33242,6.33242,0,0,1-1.057,5.131,6.44974,6.44974,0,0,1-4.377,2.867,6.80787,6.80787,0,0,1-5.131-1.207,5.92084,5.92084,0,0,1-2.717-4.377l-.603-3.017a39.58548,39.58548,0,0,0-.904-5.131q-.61053-2.718-1.813-9.055-1.512-6.636-2.414-11.469-.6075-4.527-1.509-10.261-1.209-6.03449-2.112-12.979-.906-6.939-2.717-24.144-.3045-3.318-.603-6.339h-1.811q-2.7165.3045-8.753.303h-7.244q-2.418.303-5.734.603a33.60819,33.60819,0,0,0-5.131.302h-.302q-2.418,8.757-4.527,16.901-3.324,13.58251-5.131,23.844-1.8105,10.5675-3.018,17.505a72.97,72.97,0,0,0-1.811,12.374l-.603,6.339a7.36256,7.36256,0,0,1-2.415,4.677,6.09,6.09,0,0,1-4.98,1.661,6.89937,6.89937,0,0,1-4.678-2.415,6.54411,6.54411,0,0,1-1.509-5.131m32.294-89.639h.906c2.211-.198,3.923-.302,5.131-.302q2.715-.297,8.752-.302a75.0874,75.0874,0,0,0,8.149-.301h1.208q-.306-4.224-.604-7.848-.906-10.86447-1.51-21.127-.9045-9.96-1.509-19.92-.9045-9.95852-1.508-19.617a15.19916,15.19916,0,0,1-.302-3.019q-1.812,9.05548-8.451,33.804-6.042,24.15-10.262,38.632" transform="translate(32.9191 -6.651)"/><path class="cls-14" d="M282.20889,667.0921l.604-6.036q.6-6.939,1.811-13.884,1.506-6.939,3.319-17.656,1.812-10.71,5.282-24.598,3.46652-13.878,7.696-28.974,4.224-14.784,10.866-40.443,6.636-25.353,8.3-33.652,1.6545-8.29953,2.565-15.243a115.71193,115.71193,0,0,1,3.018-14.184,77.20109,77.20109,0,0,0,2.415-9.96q1.20153-4.224,2.112-8.15a5.42993,5.42993,0,0,1-.452-1.66q-.156-1.053,1.358-3.169,1.506-2.1075,5.735-2.414,4.824-.6015,6.791,1.359a4.38824,4.38824,0,0,1,1.357,4.376l-.301,2.414q.297,3.62252.301,7.546.29852,4.23.906,19.618.297,15.09449.905,24.748.6,9.663,1.51,19.316.9045,9.96,1.81,20.222.6015,9.95847,1.51,20.825.906,10.86452,2.414,27.767,1.8105,16.9065,2.717,23.542.90454,6.64051,1.81,12.374,1.20154,6.04048,1.811,10.865.6,4.23,2.113,10.564,1.2015,6.33749,1.811,8.752.6,3.021,1.207,6.036l.303,2.717a6.33242,6.33242,0,0,1-1.057,5.131,6.44974,6.44974,0,0,1-4.377,2.867,6.80787,6.80787,0,0,1-5.131-1.207,5.92084,5.92084,0,0,1-2.717-4.377l-.603-3.017a39.58548,39.58548,0,0,0-.904-5.131q-.61053-2.718-1.813-9.055-1.512-6.636-2.414-11.469-.6075-4.527-1.509-10.261-1.209-6.03449-2.112-12.979-.906-6.939-2.717-24.144-.3045-3.318-.603-6.339h-1.811q-2.7165.3045-8.753.303h-7.244q-2.418.303-5.734.603a33.60819,33.60819,0,0,0-5.131.302h-.302q-2.418,8.757-4.527,16.901-3.324,13.58251-5.131,23.844-1.8105,10.5675-3.018,17.505a72.97,72.97,0,0,0-1.811,12.374l-.603,6.339a7.36256,7.36256,0,0,1-2.415,4.677,6.09,6.09,0,0,1-4.98,1.661,6.89937,6.89937,0,0,1-4.678-2.415A6.54411,6.54411,0,0,1,282.20889,667.0921Zm32.294-89.639h.906c2.211-.198,3.923-.302,5.131-.302q2.715-.297,8.752-.302a75.0874,75.0874,0,0,0,8.149-.301h1.208q-.306-4.224-.604-7.848-.906-10.86447-1.51-21.127-.9045-9.96-1.509-19.92-.9045-9.95852-1.508-19.617a15.19916,15.19916,0,0,1-.302-3.019q-1.812,9.05548-8.451,33.804Q318.72288,562.97111,314.5029,577.45309Z" transform="translate(32.9191 -6.651)"/><path class="cls-3" d="M396.89749,444.6543a6.18777,6.18777,0,0,1,4.678,2.113,6.908,6.908,0,0,1,1.962,4.829v1.811a35.754,35.754,0,0,0,.603,5.131q.906,4.23,1.811,9.054.90448,4.8315,2.263,11.167,1.359,6.339,4.981,22.033,3.318,15.69748,5.432,24.447,2.109,8.757,4.528,17.203,2.41048,8.454,4.829,17.204,2.41053,8.757,5.734,24.748,3.0135,15.69749,5.131,23.542,2.1075,7.85248,3.621,14.488,1.203,5.13449,3.321,12.072.297-7.24349.603-20.222v-24.145q-.3045-8.14947-.302-16.6,0-8.44647-.603-24.446-.6075-15.99449-.905-22.033-.61047-6.339-.906-16.902-.30451-10.56153-.302-14.487,0-3.918-.302-7.847v-10.563q-.303-6.636-.302-11.47v-10.564a6.37719,6.37719,0,0,1,1.962-4.677,6.92375,6.92375,0,0,1,9.658,0,6.39269,6.39269,0,0,1,1.962,4.677v10.564q0,4.52851.302,11.168v10.563q.297,4.23.302,8.149,0,3.9255.301,14.185.29847,10.26449.604,15.996.60152,6.339,1.208,22.636.6,16.299.603,25.051,0,8.454.302,16.298,0,8.148-.151,24.598-.156,16.45352-.754,23.995-.3045,7.851-.605,13.882-.6075,6.6435-.603,11.772-.303,5.736-.604,9.054a6.58162,6.58162,0,0,1-.15,1.056,17.16038,17.16038,0,0,1-.906,2.566,8.84612,8.84612,0,0,1-1.811,2.867,4.31912,4.31912,0,0,1-3.169,1.057,9.03136,9.03136,0,0,1-4.829-1.811,6.866,6.866,0,0,1-2.565-1.962,5.02,5.02,0,0,1-.906-1.811,12.29876,12.29876,0,0,1-.151-2.264q-.6075-2.7165-2.112-8.149-1.5135-5.433-2.717-8.752-.906-3.62248-3.923-13.431-3.021-9.804-4.527-16.751-1.8105-6.6345-3.924-14.486-2.115-8.151-5.131-24.146-3.32551-15.69-5.734-23.844-2.11647-8.7495-4.528-17.203-2.418-8.751-4.677-17.656-2.265-8.89947-5.735-24.598-3.47252-15.69-4.98-22.335v-.603q-.3045,6.642-.302,22.335.297,16.29749.603,24.748.603,10.866.604,19.618,0,8.454.604,17.204.297,8.757.604,18.108,0,9.05548.604,23.844.6,14.79148.905,20.976.297,6.1905.603,10.715.29847,4.23.302,7.545.297,3.324.302,6.64.297,3.324.603,7.847.29852,4.83148.302,7.545v2.717a6.18322,6.18322,0,0,1-2.112,4.677,6.90525,6.90525,0,0,1-4.829,1.962,6.69784,6.69784,0,0,1-6.64-6.639v-2.717q0-2.109-.302-6.64-.30451-4.824-.604-8.148,0-3.015-.302-6.339,0-3.621-.302-7.847-.303-4.527-.603-10.563-.303-6.339-.906-21.279-.6075-14.94-.603-23.994-.3045-9.054-.604-17.806-.6075-9.05553-.603-17.808,0-8.44647-.604-17.807-.30451-9.65547-.453-26.409-.15449-16.75049.152-23.39.29549-6.939.603-11.771a67.73091,67.73091,0,0,0,.604-8.149,32.419,32.419,0,0,1,1.508-8.149l.906-2.717a5.88067,5.88067,0,0,1,3.169-4.074,6.47769,6.47769,0,0,1,5.282-.453c.4.203.802.406,1.207.604a5.36267,5.36267,0,0,1,2.415-.604" transform="translate(32.9191 -6.651)"/><path class="cls-14" d="M396.89749,444.6543a6.18777,6.18777,0,0,1,4.678,2.113,6.908,6.908,0,0,1,1.962,4.829v1.811a35.754,35.754,0,0,0,.603,5.131q.906,4.23,1.811,9.054.90448,4.8315,2.263,11.167,1.359,6.339,4.981,22.033,3.318,15.69748,5.432,24.447,2.109,8.757,4.528,17.203,2.41048,8.454,4.829,17.204,2.41053,8.757,5.734,24.748,3.0135,15.69749,5.131,23.542,2.1075,7.85248,3.621,14.488,1.203,5.13449,3.321,12.072.297-7.24349.603-20.222v-24.145q-.3045-8.14947-.302-16.6,0-8.44647-.603-24.446-.6075-15.99449-.905-22.033-.61047-6.339-.906-16.902-.30451-10.56153-.302-14.487,0-3.918-.302-7.847v-10.563q-.303-6.636-.302-11.47v-10.564a6.37719,6.37719,0,0,1,1.962-4.677,6.92375,6.92375,0,0,1,9.658,0,6.39269,6.39269,0,0,1,1.962,4.677v10.564q0,4.52851.302,11.168v10.563q.297,4.23.302,8.149,0,3.9255.301,14.185.29847,10.26449.604,15.996.60152,6.339,1.208,22.636.6,16.299.603,25.051,0,8.454.302,16.298,0,8.148-.151,24.598-.156,16.45352-.754,23.995-.3045,7.851-.605,13.882-.6075,6.6435-.603,11.772-.303,5.736-.604,9.054a6.58162,6.58162,0,0,1-.15,1.056,17.16038,17.16038,0,0,1-.906,2.566,8.84612,8.84612,0,0,1-1.811,2.867,4.31912,4.31912,0,0,1-3.169,1.057,9.03136,9.03136,0,0,1-4.829-1.811,6.866,6.866,0,0,1-2.565-1.962,5.02,5.02,0,0,1-.906-1.811,12.29876,12.29876,0,0,1-.151-2.264q-.6075-2.7165-2.112-8.149-1.5135-5.433-2.717-8.752-.906-3.62248-3.923-13.431-3.021-9.804-4.527-16.751-1.8105-6.6345-3.924-14.486-2.115-8.151-5.131-24.146-3.32551-15.69-5.734-23.844-2.11647-8.7495-4.528-17.203-2.418-8.751-4.677-17.656-2.265-8.89947-5.735-24.598-3.47252-15.69-4.98-22.335v-.603q-.3045,6.642-.302,22.335.297,16.29749.603,24.748.603,10.866.604,19.618,0,8.454.604,17.204.297,8.757.604,18.108,0,9.05548.604,23.844.6,14.79148.905,20.976.297,6.1905.603,10.715.29847,4.23.302,7.545.297,3.324.302,6.64.297,3.324.603,7.847.29852,4.83148.302,7.545v2.717a6.18322,6.18322,0,0,1-2.112,4.677,6.90525,6.90525,0,0,1-4.829,1.962,6.69784,6.69784,0,0,1-6.64-6.639v-2.717q0-2.109-.302-6.64-.30451-4.824-.604-8.148,0-3.015-.302-6.339,0-3.621-.302-7.847-.303-4.527-.603-10.563-.303-6.339-.906-21.279-.6075-14.94-.603-23.994-.3045-9.054-.604-17.806-.6075-9.05553-.603-17.808,0-8.44647-.604-17.807-.30451-9.65547-.453-26.409-.15449-16.75049.152-23.39.29549-6.939.603-11.771a67.73091,67.73091,0,0,0,.604-8.149,32.419,32.419,0,0,1,1.508-8.149l.906-2.717a5.88067,5.88067,0,0,1,3.169-4.074,6.47769,6.47769,0,0,1,5.282-.453c.4.203.802.406,1.207.604A5.36267,5.36267,0,0,1,396.89749,444.6543Z" transform="translate(32.9191 -6.651)"/><path class="cls-15" d="M177.481,464.27249v-6.338a5.2765,5.2765,0,0,0-1.509-1.509,12.55853,12.55853,0,0,0-3.018-.603,17.00561,17.00561,0,0,0-5.131.603q-1.812.303-6.64,4.225a40.9764,40.9764,0,0,0-7.244,6.641,49.05661,49.05661,0,0,0-4.225,6.941,42.70626,42.70626,0,0,0-3.018,8.149,101.62437,101.62437,0,0,0-2.415,9.96,70.65,70.65,0,0,0-1.207,9.96q0,5.13451,2.113,16.298a96.4147,96.4147,0,0,0,4.527,17.505,121.36255,121.36255,0,0,0,4.829,11.167q2.71649,5.136,5.433,10.564,3.012,5.433,6.338,10.563,3.31649,5.433,8.451,16.298a140.39885,140.39885,0,0,1,6.639,16.6,58.72181,58.72181,0,0,1,2.717,11.469q.60148,4.83151,1.207,10.262a101.06246,101.06246,0,0,1-1.207,17.203,109.051,109.051,0,0,1-3.622,16.147,43.6236,43.6236,0,0,1-4.527,9.507,34.84166,34.84166,0,0,1-5.433,7.546q-3.021,3.0135-9.658,5.735-7.548,3.012-12.375,2.112a40.58254,40.58254,0,0,1-6.941-2.414,24.03424,24.03424,0,0,1-7.545-4.829l-2.717-2.415a6.854,6.854,0,0,1-2.414-4.678,6.06306,6.06306,0,0,1,1.66-4.981,6.73032,6.73032,0,0,1,4.678-2.263,6.62134,6.62134,0,0,1,4.829,1.66l2.716,2.415a19.73274,19.73274,0,0,0,3.924,2.716,29.52273,29.52273,0,0,0,4.527,1.509,11.5283,11.5283,0,0,0,4.527-1.509,16.09818,16.09818,0,0,0,5.131-2.716,29.61982,29.61982,0,0,0,3.622-4.829,60.71544,60.71544,0,0,0,3.32-7.244q1.506-3.9195,2.716-13.581,1.50749-9.3525,1.207-13.884-.60752-5.12852-1.207-9.658a67.97127,67.97127,0,0,0-2.113-9.357,121.38545,121.38545,0,0,0-6.036-14.939,141.97267,141.97267,0,0,0-7.545-14.638,124.50019,124.50019,0,0,1-6.64-11.167q-3.021-5.73-5.735-11.168-2.7165-5.43151-5.432-12.374-3.021-7.24351-5.433-19.92a121.75913,121.75913,0,0,1-2.113-19.014,76.55418,76.55418,0,0,1,1.51-12.374q1.20148-5.12852,2.716-10.866a54.41581,54.41581,0,0,1,3.923-10.563,53.70329,53.70329,0,0,1,5.433-8.753,50.99356,50.99356,0,0,1,9.96-9.658q6.939-5.43146,11.167-6.64a42.13124,42.13124,0,0,1,9.356-.905q6.636.3045,10.564,3.32a22.54589,22.54589,0,0,1,5.131,5.734,12.80345,12.80345,0,0,1,1.811,7.545v5.433a6.39283,6.39283,0,0,1-1.962,4.679,6.92748,6.92748,0,0,1-9.659,0,6.3726,6.3726,0,0,1-1.961-4.679" transform="translate(32.9191 -6.651)"/><path class="cls-15" d="M256.25339,464.27249l-2.113-1.811h-1.207a6.13423,6.13423,0,0,0-3.32.302,15.46327,15.46327,0,0,0-3.622,1.811q-1.5135.90454-5.131,6.338a47.96551,47.96551,0,0,0-6.036,10.261q-2.115,4.833-4.225,11.168a93.82363,93.82363,0,0,0-3.32,12.978q-1.209,6.94647-2.264,15.242-1.0605,8.304-2.565,25.503-1.515,16.9065-2.113,25.956-.6075,8.757-.604,17.203,0,8.75848.302,16.751.297,8.001.906,14.94a164.89905,164.89905,0,0,0,3.018,17.656,139.918,139.918,0,0,0,3.622,14.639,53.627,53.627,0,0,0,2.414,5.734,16.74831,16.74831,0,0,0,2.716,3.621,12.99107,12.99107,0,0,0,3.019,2.717,15.01043,15.01043,0,0,0,4.829,1.81,22.10062,22.10062,0,0,0,5.734,1.208,6.94189,6.94189,0,0,0,2.716-.906,15.02493,15.02493,0,0,0,3.622-1.81l1.811-1.811a6.32819,6.32819,0,0,1,4.98-1.51,6.90382,6.90382,0,0,1,4.678,2.415,6.11138,6.11138,0,0,1,1.509,4.829,6.77633,6.77633,0,0,1-2.414,4.528l-1.811,1.81a48.21471,48.21471,0,0,1-6.64,4.226,25.87993,25.87993,0,0,1-9.054,1.81,33.27787,33.27787,0,0,1-8.904-1.66,29.42406,29.42406,0,0,1-8.904-4.074,28.39784,28.39784,0,0,1-5.13-4.527,26.2663,26.2663,0,0,1-4.527-6.036,58.14537,58.14537,0,0,1-3.472-7.848,131.09547,131.09547,0,0,1-4.074-16.298,149.13282,149.13282,0,0,1-3.32-19.315q-.6075-7.24351-.905-15.544-.30448-8.298-.302-17.355,0-9.054.603-18.108.6015-8.751,2.113-26.258,1.5075-17.50053,2.717-26.258,1.20149-8.44651,2.414-15.694,1.506-7.542,3.622-14.487,2.412-6.939,4.527-12.677a63.14526,63.14526,0,0,1,7.545-12.676q5.433-7.54052,8.753-9.96a34.25152,34.25152,0,0,1,6.64-3.32,22.22959,22.22959,0,0,1,8.149-.906,14.91544,14.91544,0,0,1,9.356,3.019l2.113,1.811a5.86727,5.86727,0,0,1,2.414,4.376,6.64612,6.64612,0,0,1-1.358,4.98,6.88657,6.88657,0,0,1-4.527,2.565,5.8829,5.8829,0,0,1-4.98-1.358" transform="translate(32.9191 -6.651)"/><path class="cls-15" d="M282.20889,667.0921l.604-6.036q.6-6.939,1.811-13.884,1.506-6.939,3.319-17.656,1.812-10.71,5.282-24.598,3.46652-13.878,7.696-28.974,4.224-14.784,10.866-40.443,6.636-25.353,8.3-33.652,1.6545-8.29953,2.565-15.243a115.71193,115.71193,0,0,1,3.018-14.184,77.20109,77.20109,0,0,0,2.415-9.96q1.20153-4.224,2.112-8.15a5.42993,5.42993,0,0,1-.452-1.66q-.156-1.053,1.358-3.169,1.506-2.1075,5.735-2.414,4.824-.6015,6.791,1.359a4.38824,4.38824,0,0,1,1.357,4.376l-.301,2.414q.297,3.62252.301,7.546.29852,4.23.906,19.618.297,15.09449.905,24.748.6,9.663,1.51,19.316.9045,9.96,1.81,20.222.6015,9.95847,1.51,20.825.906,10.86452,2.414,27.767,1.8105,16.9065,2.717,23.542.90454,6.64051,1.81,12.374,1.20154,6.04048,1.811,10.865.6,4.23,2.113,10.564,1.2015,6.33749,1.811,8.752.6,3.021,1.207,6.036l.303,2.717a6.33242,6.33242,0,0,1-1.057,5.131,6.44974,6.44974,0,0,1-4.377,2.867,6.80787,6.80787,0,0,1-5.131-1.207,5.92084,5.92084,0,0,1-2.717-4.377l-.603-3.017a39.58548,39.58548,0,0,0-.904-5.131q-.61053-2.718-1.813-9.055-1.512-6.636-2.414-11.469-.6075-4.527-1.509-10.261-1.209-6.03449-2.112-12.979-.906-6.939-2.717-24.144-.3045-3.318-.603-6.339h-1.811q-2.7165.3045-8.753.303h-7.244q-2.418.303-5.734.603a33.60819,33.60819,0,0,0-5.131.302h-.302q-2.418,8.757-4.527,16.901-3.324,13.58251-5.131,23.844-1.8105,10.5675-3.018,17.505a72.97,72.97,0,0,0-1.811,12.374l-.603,6.339a7.36256,7.36256,0,0,1-2.415,4.677,6.09,6.09,0,0,1-4.98,1.661,6.89937,6.89937,0,0,1-4.678-2.415,6.54411,6.54411,0,0,1-1.509-5.131m32.294-89.639h.906c2.211-.198,3.923-.302,5.131-.302q2.715-.297,8.752-.302a75.0874,75.0874,0,0,0,8.149-.301h1.208q-.306-4.224-.604-7.848-.906-10.86447-1.51-21.127-.9045-9.96-1.509-19.92-.9045-9.95852-1.508-19.617a15.19916,15.19916,0,0,1-.302-3.019q-1.812,9.05548-8.451,33.804-6.042,24.15-10.262,38.632" transform="translate(32.9191 -6.651)"/><path class="cls-15" d="M396.89749,444.6543a6.18777,6.18777,0,0,1,4.678,2.113,6.908,6.908,0,0,1,1.962,4.829v1.811a35.754,35.754,0,0,0,.603,5.131q.906,4.23,1.811,9.054.90448,4.8315,2.263,11.167,1.359,6.339,4.981,22.033,3.318,15.69748,5.432,24.447,2.109,8.757,4.528,17.203,2.41048,8.454,4.829,17.204,2.41053,8.757,5.734,24.748,3.0135,15.69749,5.131,23.542,2.1075,7.85248,3.621,14.488,1.203,5.13449,3.321,12.072.297-7.24349.603-20.222v-24.145q-.3045-8.14947-.302-16.6,0-8.44647-.603-24.446-.6075-15.99449-.905-22.033-.61047-6.339-.906-16.902-.30451-10.56153-.302-14.487,0-3.918-.302-7.847v-10.563q-.303-6.636-.302-11.47v-10.564a6.37719,6.37719,0,0,1,1.962-4.677,6.92375,6.92375,0,0,1,9.658,0,6.39269,6.39269,0,0,1,1.962,4.677v10.564q0,4.52851.302,11.168v10.563q.297,4.23.302,8.149,0,3.9255.301,14.185.29847,10.26449.604,15.996.60152,6.339,1.208,22.636.6,16.299.603,25.051,0,8.454.302,16.298,0,8.148-.151,24.598-.156,16.45352-.754,23.995-.3045,7.851-.605,13.882-.6075,6.6435-.603,11.772-.303,5.736-.604,9.054a6.58162,6.58162,0,0,1-.15,1.056,17.16038,17.16038,0,0,1-.906,2.566,8.84612,8.84612,0,0,1-1.811,2.867,4.31912,4.31912,0,0,1-3.169,1.057,9.03136,9.03136,0,0,1-4.829-1.811,6.866,6.866,0,0,1-2.565-1.962,5.02,5.02,0,0,1-.906-1.811,12.29876,12.29876,0,0,1-.151-2.264q-.6075-2.7165-2.112-8.149-1.5135-5.433-2.717-8.752-.906-3.62248-3.923-13.431-3.021-9.804-4.527-16.751-1.8105-6.6345-3.924-14.486-2.115-8.151-5.131-24.146-3.32551-15.69-5.734-23.844-2.11647-8.7495-4.528-17.203-2.418-8.751-4.677-17.656-2.265-8.89947-5.735-24.598-3.47252-15.69-4.98-22.335v-.603q-.3045,6.642-.302,22.335.297,16.29749.603,24.748.603,10.866.604,19.618,0,8.454.604,17.204.297,8.757.604,18.108,0,9.05548.604,23.844.6,14.79148.905,20.976.297,6.1905.603,10.715.29847,4.23.302,7.545.297,3.324.302,6.64.297,3.324.603,7.847.29852,4.83148.302,7.545v2.717a6.18322,6.18322,0,0,1-2.112,4.677,6.90525,6.90525,0,0,1-4.829,1.962,6.69784,6.69784,0,0,1-6.64-6.639v-2.717q0-2.109-.302-6.64-.30451-4.824-.604-8.148,0-3.015-.302-6.339,0-3.621-.302-7.847-.303-4.527-.603-10.563-.303-6.339-.906-21.279-.6075-14.94-.603-23.994-.3045-9.054-.604-17.806-.6075-9.05553-.603-17.808,0-8.44647-.604-17.807-.30451-9.65547-.453-26.409-.15449-16.75049.152-23.39.29549-6.939.603-11.771a67.73091,67.73091,0,0,0,.604-8.149,32.419,32.419,0,0,1,1.508-8.149l.906-2.717a5.88067,5.88067,0,0,1,3.169-4.074,6.47769,6.47769,0,0,1,5.282-.453c.4.203.802.406,1.207.604a5.36267,5.36267,0,0,1,2.415-.604" transform="translate(32.9191 -6.651)"/></g></svg>